<?xml version='1.0' encoding='utf-8'?>
<svg xmlns="http://www.w3.org/2000/svg" viewBox="0 0 888.66 3601.59"> <defs> <style> .cls-1 { fill: #98cc2f; } .cls-1, .cls-2 { fill-opacity: 0.8; } .cls-1, .cls-6 { stroke: #3d6603; stroke-width: 8.59px; } .cls-1, .cls-10, .cls-13, .cls-14, .cls-15, .cls-16, .cls-17, .cls-21, .cls-22, .cls-23, .cls-25, .cls-26, .cls-27, .cls-6, .cls-9 { stroke-linecap: square; } .cls-2 { fill: #2e382d; } .cls-3 { fill: #46683b; } .cls-3, .cls-4 { fill-opacity: 0.61; } .cls-4 { fill: #535948; } .cls-5 { fill: #17540a; fill-opacity: 0.55; } .cls-6 { fill: #7ead00; fill-opacity: 0.3; } .cls-24, .cls-7 { fill: #f0f0f0; } .cls-8 { fill: #bebebe; } .cls-9 { fill: #101461; } .cls-10, .cls-9 { stroke: #c6c6c6; stroke-width: 5.4px; } .cls-10, .cls-15, .cls-19 { fill: #fff; } .cls-11 { fill: #fff9fc; } .cls-12 { fill: #262654; } .cls-13 { fill: #a8000d; stroke-width: 25.76px; } .cls-13, .cls-17 { stroke: #fff; } .cls-14 { fill: #011534; stroke: #011534; stroke-width: 7.44px; } .cls-15 { stroke: #b0753b; stroke-width: 2.12px; } .cls-16, .cls-17 { fill: #a40017; } .cls-16 { stroke: #0f1360; stroke-width: 33.19px; } .cls-17 { stroke-width: 7.69px; } .cls-18 { fill: #474fb2; } .cls-20 { fill: #0f1360; } .cls-21, .cls-25 { fill: #c6c6c6; } .cls-21 { stroke: #000; stroke-width: 0.68px; } .cls-22 { fill: #8a8a8a; } .cls-22, .cls-23, .cls-24, .cls-25 { stroke: #4d4d4d; } .cls-22, .cls-23 { stroke-width: 3.24px; } .cls-23 { fill: #dadada; } .cls-24 { stroke-linecap: round; stroke-linejoin: round; } .cls-24, .cls-25 { stroke-width: 3.19px; } .cls-26 { fill: #779d01; stroke: #46683b; stroke-width: 38.07px; } .cls-27 { fill: #aed618; fill-opacity: 0.52; stroke: #aed618; stroke-width: 27.78px; } </style> </defs> <title>Pastis for PixabaySVG</title> <g id="Layer_2" data-name="Layer 2"> <g id="Pastis_for_Pixabay" data-name="Pastis for Pixabay"> <g id="document"> <g> <g> <g> <g> <g> <g> <path class="cls-1" d="M444.33,464.53H443q-8.5,0-16.49.17-8.46-.17-17.24-.17c-89.46,0-136.35,15-136.32,14.14-4.54,128-16.76,489.05-16.76,480.21,0,87.19-11.86,101.19-11.86,101.19,0,30.1-77.24,96.6-134.26,190.78-48.27,79.75-83,149.9-79.37,424.36,3.68,277.16,12.21,517.79,19,735.7-7,170.37-13.78,439.91-13.78,589.12,0,340.06-61.16,540.92,225.49,585.25,0,0,71.64,11,142.78,11,3.89,0,7.77,0,11.65-.1s7.77.1,11.65.1q8.46,0,16.87-.2c5.59.13,11.23.2,16.86.2,3.89,0,7.78,0,11.66-.1s7.76.1,11.65.1c71.14,0,142.78-11,142.78-11C913.93,3541,852.76,3340.09,852.76,3000c0-149.21-6.75-418.75-13.77-589.12,6.78-217.91,15.31-458.54,19-735.7,3.64-274.46-31.09-344.61-79.37-424.36-57-94.18-134.25-160.68-134.25-190.78,0,0-11.86-14-11.86-101.19,0,8.84-12.23-352.22-16.76-480.21,0,.86-46.87-14.14-136.33-14.14q-8.76,0-17.23.17-8-.17-16.49-.17Z"/> <path class="cls-2" d="M403.2,3584.7c2.93,0,5.87,0,8.79-.09l2.86,0,2.85,0q4.4.07,8.81.09,7,0,14-.19l2.86.06,2.86-.06q7,.16,14,.19,4.41,0,8.81-.09l2.85,0,2.86,0c2.92,0,5.86.08,8.79.09,70.19-.29,139.92-11,139.92-11,152.12-23.52,233.23-117.38,193.45-163-35.36-40.59-191.88-46.12-327.06-46.85q-12.54-.06-25.16-.09l-21.32,0-21.32,0q-12.62,0-25.16.09c-135.18.73-291.7,6.26-327.06,46.85-39.78,45.64,41.33,139.5,193.45,163,0,0,69.73,10.68,139.92,11Z"/> <path class="cls-3" d="M407.35,3601.59q4.47,0,9-.09l-.27-16.89-.27,16.89,2.92,0h.41l2.92,0-.27-16.89-.27,16.89q4.55.08,9,.09c4.85,0,9.63-.08,14.47-.19l-.39-16.89-.38,16.89,2.92.06h.64l2.92-.06-.39-16.89-.38,16.89q7.26.17,14.32.19c3.11,0,6.11,0,9.14-.09l-.27-16.89-.27,16.89,2.92,0h.41l2.93,0-.27-16.89-.27,16.89q4.53.08,9,.09c31.1-.12,64.06-2.2,97-5.57,11.89-1.22,23-2.52,32.89-3.83,3.49-.46,6.59-.88,9.28-1.27l2.48-.36.9-.13c74.24-11.48,137.63-40.13,177.66-77.58,40.48-37.87,53-82.24,26-113.24-20.26-23.26-66-36.38-137-44.07-53.43-5.78-116.84-8.11-202.69-8.57q-12.6-.06-25.21-.09l-21.36,0-21.36,0q-12.63,0-25.21.09c-85.85.46-149.26,2.79-202.69,8.57-71,7.69-116.75,20.81-137,44.07-27,31-14.52,75.37,26,113.24,40,37.45,103.43,66.1,177.64,77.57l.93.14,2.48.36c2.68.39,5.79.81,9.28,1.27,9.94,1.31,21,2.61,32.89,3.83,32.93,3.37,65.89,5.45,96.86,5.57Zm0-33.78c-29.73-.12-61.63-2.13-93.55-5.39-11.56-1.19-22.3-2.46-31.93-3.72-3.36-.44-6.34-.85-8.9-1.22l-3.05-.45c-67.78-10.48-124.89-36.28-159.7-68.85-28.86-27-35.94-52.18-23.57-66.38,12.52-14.36,52.83-25.92,115.18-32.67,52-5.63,114.46-7.92,199.24-8.38q12.53-.06,25.1-.09h42.58q12.57,0,25.11.09c84.76.46,147.23,2.75,199.22,8.38,62.36,6.75,102.67,18.31,115.18,32.67,12.38,14.2,5.29,39.38-23.57,66.38-34.8,32.57-91.92,58.37-159.72,68.86l-3,.44c-2.56.37-5.54.78-8.9,1.22-9.63,1.26-20.36,2.53-31.92,3.72-31.93,3.26-63.83,5.27-93.56,5.39-2.7,0-5.56,0-8.45-.09h-.54l-2.8,0,.21,16.89.2-16.89-2.79,0h-.54q-4.34.08-8.6.09c-4.36,0-8.92-.08-13.55-.19h-.77c-.93,0-1.87.05-2.79.06l.32,16.89.32-16.89q-1.39,0-2.79-.06h-.77q-6.95.16-13.7.19c-2.69,0-5.56,0-8.46-.09h-.54l-2.79,0,.21,16.89.2-16.89-2.79,0h-.54c-2.89.05-5.76.08-8.59.09Z"/> </g> <path class="cls-4" d="M630.38,979.14c-47.55,27.64-66.38,41-187,41s-129.14-8.23-187.63-41c-3.32,20.21-12.39,70.53-12.39,70.53,0,30.1-77.24,96.59-134.26,190.78-20.63,34.09-38.79,66.42-52.54,113.71h0c76.37-135,221.31-226.44,386.82-226.44s310.45,91.49,386.82,226.44c-13.75-47.29-31.91-79.62-52.55-113.71-57-94.19-134.25-160.68-134.25-190.78Z"/> </g> <path class="cls-5" d="M57.42,1354.16c76.37-135,221.32-226.44,386.82-226.44s310.45,91.49,386.82,226.44c-13.75-47.29-31.91-79.62-52.54-113.71-57-94.19-134.26-160.68-134.26-190.78,0,0-11.86-14-11.86-101.19,0,8.84-12.22-352.22-16.76-480.22,0,.87-46.86-14.14-136.32-14.14q-8.77,0-17.24.18-8-.18-16.49-.18h-2.7q-8.49,0-16.49.18-8.46-.18-17.23-.18c-89.46,0-136.36,15-136.33,14.14-4.53,128-16.76,489.06-16.76,480.22,0,87.19-11.86,101.19-11.86,101.19,0,30.1-77.23,96.59-134.25,190.78-20.64,34.09-38.8,66.42-52.55,113.71Z"/> </g> <path class="cls-6" d="M420.25,449.83H418.9q-8.55,0-16.58.17-8.51-.17-17.32-.17c-89.9,0-137,15.08-137,14.21-4.55,128.63-16.84,491.48-16.84,482.6,0,87.62-11.92,101.69-11.92,101.69,0,30.25-77.62,97.08-134.92,191.73C35.8,1320.2.9,1390.7,4.56,1666.52c3.69,278.54,12.26,520.36,19.08,739.35C16.57,2577.09,9.79,2848,9.79,2997.92c0,341.74-61.46,543.6,226.61,588.15,0,0,72,11,143.48,11,3.91,0,7.82,0,11.71-.09s7.81.09,11.71.09c5.67,0,59.48.13,65.1,0,5.63.13,11.29.2,17,.2q5.86,0,11.72-.1c3.89.07,7.8.1,11.7.1,71.5,0,143.49-11,143.49-11,288.07-44.55,226.61-246.41,226.61-588.15,0-149.95-6.79-420.84-13.85-592.06,6.82-219,15.39-460.8,19.08-739.34,3.66-275.82-31.24-346.32-79.76-426.47C747,1145.6,669.42,1078.78,669.42,1048.53c0,0-11.92-14.07-11.92-101.69,0,8.88-12.29-354-16.84-482.6,0,.87-47.1-14.21-137-14.21q-8.81,0-17.32.17c-5.35-.11-59-.37-64.72-.37Z"/> <g> <g> <g> <path class="cls-7" d="M439.85,2878.71c183.89,2.36,246.35-8.78,246.35-8.78l49-32.09-2.09-111.38-48.23-35.57-.63,0,0,0-.63.07c-96.09,5.17-177.66,7.35-245.07,7.82-67.41-.47-149-2.65-245.08-7.82l-.63-.07v0l-.64,0-42.58,35.57,3,111.38,40.85,32.09s62.47,11.14,246.35,8.78Z"/> <path class="cls-8" d="M439,2885.75c80.59,1,144.16-.39,192.57-3.51,17-1.1,30.86-2.33,41.87-3.6,3.87-.45,7.11-.87,9.75-1.25l3.23-.5,1.14-.21,1-.63L737.6,2844l2.56-1.67v-3.06l-3-115.92v-2.89l-2.32-1.71-48.23-35.57-1.65-1.21-2,.11-.62,0,.3,5.68,5.34-2,0,0-1.53-4.19-4.44.5-.6.06q-133.12,7.15-244.51,7.79-111.15-.78-244.73-7.81l-.3,0-4.44-.5-1.53,4.19,0,0,5.34,2,.31-5.68-.63,0-2.24-.12-1.71,1.43-42.59,35.57-2.05,1.72v2.67l4,115.92V2842l2.16,1.69,40.86,32.1,1.11.88,1.4.25c.55.09,1.61.26,3.22.5,2.64.38,5.88.8,9.76,1.25,11,1.27,24.89,2.5,41.87,3.6,48.4,3.12,112,4.55,192.57,3.51Zm0-11.36c-80.31,1-143.6-.4-191.7-3.5-16.79-1.08-30.48-2.3-41.3-3.54q-5.64-.66-9.42-1.21c-1.5-.22-2.44-.37-2.87-.45l2.52,1.13-40.85-32.09,2.17,4.44-4-115.93-2,4.4,42.58-35.57-3.64-4.36-.31,5.67.63,0,4.2.22,1.45-3.94v0l-5.34-1.95-.64,5.64.67.08q134.29,7.23,245.64,7.85,111.66-.8,245.42-7.83l1-.1-.64-5.64-5.34,1.95,0,0,1.44,3.94,4.2-.22.63,0-.31-5.67-3.37,4.57,48.23,35.57-2.31-4.61,3,115.93,2.58-4.73-49,32.09,2.11-.84c-.42.08-1.37.23-2.86.45-2.53.37-5.66.77-9.42,1.21-10.82,1.24-24.51,2.46-41.3,3.54-48.1,3.1-111.39,4.53-191.7,3.5Z"/> </g> <g> <path class="cls-9" d="M437.65,2859.59c167.87,2.14,224.89-8,224.89-8l44.78-29.3.41-80.16-44-32.47c-.19,0-.38,0-.57,0v0l-.58.07c-87.72,4.72-162.19,6.7-223.73,7.14-61.54-.44-136-2.42-223.73-7.14l-.58-.07v0c-.19,0-.38,0-.57,0L175,2742.11l.42,80.16,37.29,29.3s57,10.16,224.9,8Z"/> <path class="cls-10" d="M437.58,2864.77c73.57.94,131.61-.36,175.8-3.21,15.5-1,28.17-2.12,38.22-3.28,3.54-.41,6.5-.79,8.91-1.14,1.47-.22,2.44-.37,2.94-.46l1-.19.88-.58,44.78-29.3,2.33-1.53,0-2.78.41-80.16,0-2.64-2.13-1.56-44-32.47-1.5-1.11-1.87.1-.57,0,.28,5.18,4.87-1.78v0l-1.41-3.82-4,.46-.55.06q-121.54,6.52-223.22,7.11-101.46-.72-223.41-7.13l-.27,0L211,2704l-1.41,3.82v0l4.87,1.78.28-5.18-.57,0-2-.11-1.57,1.31-38.88,32.47-1.87,1.57v2.44l.42,80.16v2.5l2,1.55,37.3,29.3,1,.8,1.27.23c.5.09,1.48.24,2.94.46,2.42.35,5.38.73,8.91,1.14,10.05,1.16,22.72,2.28,38.22,3.28,44.19,2.85,102.23,4.15,175.8,3.21Zm0-10.37c-73.31.94-131.09-.36-175-3.2-15.33-1-27.83-2.09-37.7-3.23-3.44-.4-6.3-.77-8.61-1.1-1.36-.2-2.22-.34-2.61-.41l2.3,1-37.3-29.3,2,4-.42-80.15-1.86,4,38.87-32.47-3.32-4-.28,5.18.57,0,3.83.2,1.32-3.6v0l-4.87-1.79-.58,5.16.61.06q122.6,6.61,224.24,7.17,101.94-.72,224.05-7.14l.88-.09-.58-5.16-4.87,1.79v0l1.32,3.6,3.83-.2.57,0-.28-5.18-3.07,4.18,44,32.47-2.11-4.2-.42,80.15,2.35-4.31-44.78,29.3,1.93-.77c-.39.07-1.25.21-2.61.41-2.31.33-5.17.7-8.61,1.1-9.87,1.14-22.37,2.25-37.7,3.23-43.91,2.84-101.68,4.14-175,3.2Z"/> </g> </g> <g> <g> <g> <g> <path class="cls-11" d="M122.57,2486.12s207.36,26.16,344.38,26.16,283.78-26.16,283.78-26.16l42.85-85.44.58-513.48-39.29-109S604.12,1801.4,467,1801.25s-344.38-23.1-344.38-23.1l-40,109v513.48Z"/> <path class="cls-11" d="M146.25,2450.77s172.68,26.16,309.71,26.16,271.09-26.16,271.09-26.16l42.85-85.44.58-441.91-39.29-109.05S593.13,1837.62,456,1837.48s-309.71-23.11-309.71-23.11l-40,109.05v441.91Z"/> <path class="cls-12" d="M145.2,2457.69c.8.13,2.34.35,4.57.68,3.72.54,8,1.15,12.92,1.83,13.93,1.93,29.56,4,46.52,6,48.47,5.9,98,10.79,145.56,14,26.62,1.77,51.93,3,75.67,3.45q13.11.29,25.52.28,25.32,0,51.89-1.15c51.52-2.22,103.88-7.41,154.37-14.46,17.67-2.47,33.85-5,48.19-7.45,5-.86,9.47-1.64,13.28-2.34,2.3-.43,3.88-.72,4.7-.89l3.38-.65,1.54-3.08,42.85-85.44.74-1.48v-1.65l.58-441.91v-1.23l-.42-1.15-39.29-109-2-5.51-5.78,1c-.79.14-2.35.39-4.64.75-3.83.61-8.29,1.3-13.35,2-14.45,2.14-30.74,4.35-48.5,6.51-50.75,6.17-103.13,10.71-154.26,12.68-18.24.7-36,1-53.3,1q-15.54,0-32.24-.42c-20.51-.49-42.18-1.41-64.82-2.72C311,1824.58,261,1820.25,212,1815c-17.17-1.83-33-3.65-47.13-5.36-4.94-.61-9.31-1.15-13.06-1.63l-4.59-.59-5.56-.74-1.94,5.27-40,109-.43,1.17v444.71l.67,1.41,40,85.44,1.59,3.39Zm2.1-13.85,5.29,4-40-85.44.67,3V1923.42l-.43,2.42,40-109.06-7.5,4.54,4.65.6q5.69.72,13.15,1.63c14.19,1.73,30.09,3.55,47.33,5.4,49.29,5.26,99.49,9.6,147.64,12.37,22.79,1.32,44.61,2.24,65.3,2.74q16.83.4,32.55.42,26.19,0,53.86-1c51.55-2,104.3-6.56,155.41-12.77,17.88-2.17,34.29-4.4,48.86-6.55,5.11-.76,9.62-1.45,13.5-2.07l4.77-.77-7.75-4.53,39.29,109-.41-2.39-.59,441.91.75-3.13-42.85,85.44,4.92-3.74-4.55.85c-3.75.69-8.14,1.47-13.1,2.32-14.21,2.43-30.25,4.93-47.78,7.38-50.07,7-102,12.14-153,14.34q-26.22,1.13-51.28,1.14-12.25,0-25.23-.28c-23.51-.5-48.61-1.66-75-3.42-47.33-3.15-96.56-8-144.8-13.89-16.88-2.06-32.43-4.09-46.29-6-4.85-.67-9.14-1.28-12.82-1.82l-4.49-.66Z"/> <path class="cls-11" d="M156,2423.47s183.83,23.19,305.31,23.19,251.58-23.19,251.58-23.19l38-75.74.51-391.78-34.83-96.68s-133.64,20.62-255.25,20.49S156,1859.27,156,1859.27L120.48,1956v391.78Z"/> <path class="cls-12" d="M155.62,2426.27l4.15.52c3.39.41,7.32.89,11.77,1.41,12.68,1.49,26.89,3.09,42.26,4.74,43.93,4.69,88.47,8.78,130.89,11.75q20.49,1.44,39.68,2.47c28.42,1.52,54.21,2.33,76.91,2.33,20,0,41-.63,62.85-1.83,43.68-2.39,88.51-6.92,132-12.75,15.24-2,29.22-4.1,41.64-6.08,4.35-.69,8.2-1.32,11.5-1.88,2-.33,3.35-.57,4.06-.7l1.39-.25.63-1.26,38-75.75.3-.59v-.67l.52-391.77-.17-1-34.83-96.67-.79-2.19-2.3.35-4.08.61q-5,.73-11.65,1.65c-12.59,1.74-26.74,3.55-42.13,5.34-44,5.13-89.12,9.12-132.84,11.23-22.35,1.09-43.79,1.64-64.12,1.62-23.49,0-50.32-.8-80-2.25q-16.63-.83-34.29-1.9c-42.67-2.62-87.59-6.24-132-10.4-15.53-1.46-29.88-2.88-42.71-4.21-4.49-.46-8.47-.88-11.89-1.25l-4.19-.46-2.2-.24-.76,2.08L117.83,1955l-.18,1v391.78l.27,1.19,35.49,75.75.66,1.41Zm.71-5.6,2.2,1.6L123,2346.53l.27,1.2V1956l-.17,1,35.49-96.68-3,1.83c.73.09,2.15.24,4.21.46,3.43.37,7.41.79,11.91,1.25,12.84,1.33,27.22,2.76,42.76,4.21,44.43,4.17,89.4,7.8,132.14,10.42q17.67,1.08,34.37,1.9c29.72,1.46,56.63,2.24,80.22,2.27,20.43,0,42-.54,64.4-1.63,43.86-2.12,89.12-6.12,133.22-11.26,15.44-1.8,29.63-3.62,42.26-5.36,4.42-.61,8.33-1.16,11.68-1.66l4.13-.61-3.09-1.84,34.83,96.68-.16-1L748,2347.72l.3-1.26-38,75.74,2-1.51-4,.69q-4.93.82-11.44,1.87c-12.38,2-26.32,4-41.51,6.05-43.38,5.82-88.07,10.33-131.59,12.72-21.71,1.19-42.62,1.81-62.54,1.81-22.59,0-48.28-.8-76.61-2.32q-19.11-1-39.59-2.46c-42.34-3-86.81-7.05-130.68-11.74-15.35-1.64-29.53-3.23-42.2-4.73l-11.74-1.4-4.13-.51Z"/> </g> <path class="cls-13" d="M69.78,2222.25s234.82,29.06,382.85,29.06,360.48-29.06,360.48-29.06L837,2178.59v-92.54l-19.45-54.37s-216.76,36.22-365,36.06-382.85-36.06-382.85-36.06l-18.16,54.37v92.54Z"/> <path class="cls-14" d="M140.83,2135.09q16,0,25.8-2.42a31,31,0,0,0,16.32-9.91,26.47,26.47,0,0,0,6.54-18,28.17,28.17,0,0,0-3.77-14.3,27.24,27.24,0,0,0-11.21-10.5,43.71,43.71,0,0,0-16.36-4.84q-8.93-.87-25.25-.87l-43.58,1v8.8h2.61q7.84,0,10.34,2.89t2.5,10.27v63.55q0,7.21-2.42,10.19t-10.42,3H90v8.8h58.25v-8.8h-2.46q-7.92,0-10.42-2.89t-2.5-10.27v-25.59Zm-7.93-51.28q10.54,0,15.3,1.55a14.44,14.44,0,0,1,7.85,6.65c2,3.41,3.09,7.86,3.09,13.36q0,9.2-4.21,14.7t-16.79,5.51H132.9Zm133.69,83.56,2.82,7.15.93,2.24a11.64,11.64,0,0,1,1.31,4.56,3.92,3.92,0,0,1-1.59,3.21c-1.06.85-3.79,1.27-8.17,1.27v8h48.64v-8a13.46,13.46,0,0,1-7.08-2.28q-3.69-2.28-8.24-13.55l-30.72-75.89H256l-30.13,76q-6.28,15.77-15.54,15.76v8h32.38v-8q-5.43,0-7.81-1.41t-2.38-4.95q0-2.1,2-7.23l1.88-4.84Zm-15.47-37.58,12.21,29.27H239.56Zm117.79,75.29a27.59,27.59,0,0,1,2.46-7.95,30.6,30.6,0,0,0,11.6,8.45,36.67,36.67,0,0,0,14.85,3.18,33.08,33.08,0,0,0,22.91-8.63,27.9,27.9,0,0,0,9.62-21.65,28.88,28.88,0,0,0-3-13,28.47,28.47,0,0,0-8.13-10q-5.13-4-15.83-9-11.92-5.57-15.61-7.62a17.16,17.16,0,0,1-5.86-5.21,11.8,11.8,0,0,1-2.16-6.83,10.49,10.49,0,0,1,3.36-7.95q3.36-3.18,9.07-3.18,7.59,0,13.66,6.22a32.32,32.32,0,0,1,8.24,15.83h8.09v-28.91h-8.31a19.65,19.65,0,0,1-2.39,6.65,29.57,29.57,0,0,0-21.25-8.39,30.35,30.35,0,0,0-21,8.21,26.84,26.84,0,0,0-9.07,20.85,27.19,27.19,0,0,0,3.54,14,29.57,29.57,0,0,0,9.4,9.93q5.85,3.87,22.55,12.18,8.67,4.34,11,7.88a12.87,12.87,0,0,1,2.31,7.08,11.82,11.82,0,0,1-3.68,8.67q-3.69,3.69-9.9,3.69-8.39,0-15.61-6.43t-10.85-21.47h-8.67v33.54Zm147-20.09c0,4.38-.74,7.48-2.21,9.28S509,2197,504.13,2197h-2.32v8H556v-8h-2.53q-7.3,0-9.58-2.63t-2.28-9.36v-69.24H550q9.18,0,13.37,3.94t6.51,15.21h8.16V2107H480v27.9h8.16a30.43,30.43,0,0,1,2.86-11.24q2.34-4.74,5.82-6.32t10.84-1.59h8.24Zm111.79-81.53q8.1,0,10.52,2.49c1.61,1.67,2.42,4.83,2.42,9.51v58q0,7.23-2.57,9.61t-10.37,2.39v8h51.82v-8H678q-7.14,0-9.43-2.64t-2.27-9.36v-58c0-4.39.73-7.48,2.2-9.29s4.64-2.71,9.5-2.71h1.52v-8H627.7Zm110.21,72.17a27.39,27.39,0,0,1,2.46-8,30.52,30.52,0,0,0,11.6,8.45,36.67,36.67,0,0,0,14.85,3.18,33.12,33.12,0,0,0,22.91-8.64,27.85,27.85,0,0,0,9.61-21.64,29,29,0,0,0-3-13.05,28.56,28.56,0,0,0-8.13-10q-5.13-4-15.83-9-11.93-5.57-15.61-7.63a16.91,16.91,0,0,1-5.85-5.2,11.76,11.76,0,0,1-2.17-6.83,10.49,10.49,0,0,1,3.36-8q3.36-3.18,9.07-3.18,7.59,0,13.66,6.22a32.21,32.21,0,0,1,8.24,15.82h8.09v-28.91h-8.31a19.5,19.5,0,0,1-2.38,6.65,29.58,29.58,0,0,0-21.25-8.38,30.36,30.36,0,0,0-21,8.2,28.75,28.75,0,0,0-5.52,34.8,29.58,29.58,0,0,0,9.39,9.94q5.85,3.87,22.55,12.18,8.67,4.34,11,7.88a12.87,12.87,0,0,1,2.31,7.08,11.87,11.87,0,0,1-3.69,8.67q-3.69,3.69-9.9,3.69-8.39,0-15.61-6.43t-10.84-21.47h-8.68v33.54Z"/> <path class="cls-15" d="M137.11,2138.81q16,0,25.8-2.42a31,31,0,0,0,16.32-9.91,26.47,26.47,0,0,0,6.54-18,28.24,28.24,0,0,0-3.76-14.3,27.33,27.33,0,0,0-11.22-10.5,43.47,43.47,0,0,0-16.36-4.84q-8.93-.87-25.24-.87l-43.59.95v8.8h2.61c5.24,0,8.68,1,10.35,2.89s2.49,5.35,2.49,10.26v63.56q0,7.21-2.41,10.19t-10.43,3h-1.9v8.79h58.25v-8.79H142.1q-7.92,0-10.42-2.89t-2.49-10.27v-25.59Zm-7.92-51.28q10.53,0,15.29,1.55a14.41,14.41,0,0,1,7.85,6.65q3.09,5.11,3.09,13.36,0,9.19-4.2,14.7t-16.8,5.51h-5.23Zm133.68,83.56,2.82,7.15.94,2.24a11.78,11.78,0,0,1,1.3,4.55,3.93,3.93,0,0,1-1.59,3.22q-1.59,1.26-8.17,1.26v8h48.64v-8a13.5,13.5,0,0,1-7.08-2.27q-3.69-2.28-8.24-13.55l-30.72-75.89h-8.45l-30.14,76q-6.28,15.75-15.54,15.75v8H239v-8q-5.43,0-7.81-1.4t-2.38-5q0-2.1,2-7.23l1.88-4.84ZM247.4,2133.5l12.22,29.27H235.84Zm117.8,75.29a27.91,27.91,0,0,1,2.45-7.95,30.52,30.52,0,0,0,11.6,8.46,36.75,36.75,0,0,0,14.86,3.18,33.16,33.16,0,0,0,22.91-8.63,27.92,27.92,0,0,0,9.61-21.65,28.92,28.92,0,0,0-3-13,28.56,28.56,0,0,0-8.13-10q-5.13-4-15.83-9-11.93-5.57-15.61-7.63a16.91,16.91,0,0,1-5.85-5.2,11.74,11.74,0,0,1-2.17-6.83,10.49,10.49,0,0,1,3.36-7.95q3.36-3.18,9.07-3.18,7.59,0,13.66,6.22a32.25,32.25,0,0,1,8.24,15.82h8.09v-28.91h-8.31a19.72,19.72,0,0,1-2.38,6.65,29.58,29.58,0,0,0-21.25-8.38,30.36,30.36,0,0,0-21,8.2,28.78,28.78,0,0,0-5.53,34.8,29.7,29.7,0,0,0,9.4,9.94q5.85,3.87,22.55,12.18,8.67,4.34,11,7.88a12.81,12.81,0,0,1,2.32,7.08,11.87,11.87,0,0,1-3.69,8.67q-3.69,3.69-9.9,3.69-8.38,0-15.61-6.43t-10.84-21.47h-8.68v33.53Zm147-20.09c0,4.39-.74,7.48-2.21,9.29s-4.66,2.71-9.57,2.71H498.1v8h54.13v-8H549.7q-7.31,0-9.58-2.64t-2.27-9.36v-69.23h8.45q9.18,0,13.37,3.93t6.51,15.22h8.16v-27.9H476.27v27.9h8.17a30.23,30.23,0,0,1,2.85-11.24c1.57-3.16,3.51-5.26,5.82-6.33s5.93-1.58,10.84-1.58h8.24ZM624,2107.18q8.1,0,10.52,2.49t2.42,9.5v58q0,7.23-2.56,9.61T624,2189.14v8h51.83v-8h-1.52q-7.15,0-9.44-2.64t-2.27-9.36v-58c0-4.38.73-7.48,2.2-9.28s4.64-2.71,9.51-2.71h1.52v-8H624Zm110.21,72.16a27.59,27.59,0,0,1,2.46-8,30.52,30.52,0,0,0,11.6,8.46A36.67,36.67,0,0,0,763.1,2183a33.11,33.11,0,0,0,22.91-8.64,27.87,27.87,0,0,0,9.61-21.64,28.89,28.89,0,0,0-3-13.05,28.56,28.56,0,0,0-8.13-10q-5.13-4-15.83-9-11.92-5.57-15.61-7.63a17.1,17.1,0,0,1-5.85-5.2A11.78,11.78,0,0,1,745,2101a10.49,10.49,0,0,1,3.36-7.95q3.36-3.18,9.07-3.18,7.59,0,13.66,6.21a32.2,32.2,0,0,1,8.24,15.83h8.1V2083h-8.32a19.5,19.5,0,0,1-2.38,6.65,29.56,29.56,0,0,0-21.25-8.38,30.32,30.32,0,0,0-21,8.2,26.88,26.88,0,0,0-9.08,20.85,27.2,27.2,0,0,0,3.55,13.95,29.67,29.67,0,0,0,9.39,9.94q5.85,3.87,22.55,12.18,8.67,4.34,11,7.87a12.88,12.88,0,0,1,2.31,7.09,11.87,11.87,0,0,1-3.69,8.67q-3.67,3.69-9.9,3.69-8.39,0-15.61-6.44t-10.84-21.46h-8.67v33.53Z"/> </g> <path class="cls-16" d="M522.39,1974.74c0-59.23-36.28-107.24-81-107.24s-81,48-81,107.24,36.28,107.23,81,107.23S522.39,2034,522.39,1974.74Z"/> <path class="cls-17" d="M509.81,1974.74c0-50-30.65-90.59-68.46-90.59s-68.47,40.56-68.47,90.59,30.66,90.58,68.47,90.58S509.81,2024.77,509.81,1974.74Z"/> </g> <g> <g> <path class="cls-18" d="M445.26,2315.81c106.52,1.37,142.7-5.08,142.7-5.08l28.42-18.59.26-50.87-27.94-20.6-.36,0v0l-.37,0c-55.66,3-102.92,4.25-142,4.53-39.05-.28-86.3-1.54-142-4.53l-.37,0v0l-.36,0-24.67,20.6.26,50.87,23.67,18.59s36.18,6.45,142.71,5.08Z"/> <path class="cls-19" d="M441.91,2319.24c46.69.6,83.52-.23,111.56-2,9.83-.63,17.87-1.34,24.25-2.08q3.36-.39,5.65-.72l1.87-.3.66-.11.56-.37,28.42-18.6,1.48-1v-1.77l.26-50.87v-1.67l-1.35-1-27.94-20.61-1-.7-1.18.07-.36,0,.17,3.28,3.1-1.13v0l-.89-2.43-2.57.29-.35,0q-77.11,4.14-141.64,4.51-64.4-.45-141.77-4.53l-.17,0-2.57-.29-.89,2.43v0l3.09,1.13.18-3.28-.37,0-1.29-.07-1,.83-24.67,20.6-1.19,1v1.55l.26,50.87v1.59l1.25,1,23.66,18.59.65.51.81.14,1.87.3q2.29.33,5.65.72c6.38.74,14.42,1.45,24.25,2.08,28,1.81,64.87,2.64,111.56,2Zm0-6.58c-46.52.59-83.18-.23-111-2-9.73-.63-17.66-1.33-23.93-2.05-2.18-.25-4-.49-5.46-.7l-1.65-.26,1.45.65-23.66-18.59,1.25,2.57-.26-50.86-1.18,2.54,24.67-20.6L300,2220.8l-.18,3.29.36,0,2.43.13.84-2.28v0l-3.09-1.14-.37,3.28.39,0q77.79,4.18,142.29,4.55,64.68-.47,142.17-4.54l.56-.05-.37-3.28-3.09,1.14v0l.84,2.28,2.43-.13.37,0-.18-3.29-1.95,2.65,27.93,20.61-1.33-2.67-.27,50.86,1.49-2.73-28.41,18.59,1.22-.49-1.65.26c-1.47.21-3.28.45-5.46.7-6.27.72-14.2,1.42-23.93,2.05-27.86,1.8-64.52,2.62-111,2Z"/> </g> <path class="cls-19" d="M325,2294.3h6.81v-20.51h10.45c9.75,0,16.64-5.49,16.64-16,0-9.83-5.8-15.48-17.33-15.48H325Zm6.81-26.16v-20H341c7.74,0,10.68,2.86,10.68,10.13,0,6.66-3.1,9.83-10.84,9.83Zm44.61,26.16h6.5l5.19-14.62h20.27l5.26,14.62h7.13l-18.81-52h-6.58ZM398,2251.43h.23l8.05,22.44H390.13Zm44.3,42.87h6.81v-22h9.28l12.54,22h7.82l-13.62-23.22v-.38c6.11-2.17,9.83-6.19,9.83-13.62,0-9.76-6-14.79-17.42-14.79H442.32Zm6.81-27.4v-18.72h8c7.43,0,10.68,2.55,10.68,9.05,0,6.66-3.1,9.67-10.6,9.67ZM501,2294.3h6.81v-52H501Zm45.14.93c12.15,0,17.49-6.11,17.49-15.32,0-8.67-4.79-12.15-12.46-14.63l-5.34-1.78c-5.57-1.86-7.12-3.95-7.12-8.67s3.41-7.58,9.37-7.58A30.57,30.57,0,0,1,561,2250v-5.72a25.37,25.37,0,0,0-12.69-2.87c-10.91,0-16.48,5.81-16.48,14s4.25,11.84,11.22,14.16l5.41,1.78c6,2.09,8.21,4.18,8.21,9.06,0,5.49-3.33,9-10.91,9a31.75,31.75,0,0,1-14.55-3.41v5.8C534.7,2293.76,539.57,2295.23,546.15,2295.23Z"/> </g> </g> </g> </g> <g> <path class="cls-20" d="M220.23,879.11H661.68q-.09-7.14-.09-14.85c0,11.38-15.75-453.68-21.59-618.54,0,1.12-60.36-18.21-175.59-18.21q-11.94,0-23.45.25-11.52-.24-23.46-.25c-115.23,0-175.63,19.33-175.59,18.21-5.84,164.86-21.59,629.92-21.59,618.54q0,7.71-.09,14.85Z"/> <path class="cls-21" d="M658.91,792c-7.32,4.5-16.81,5.73-27,2.62L628,793.44l3.29-2.38,5.14-3.72,3.28-2.38-.08,4c-.49,23-19.54,36.64-41.69,29.89l-2.87-.87-1.45-.44,0-1.51.05-3,.59-42.36c-.07-23.07,19-37.08,41.35-30.47l3.91,1.16-3.3,2.41-5.11,3.73-3.29,2.4.09-4.07c.38-18.32,12.31-30.69,28.25-31.65-2.6-75.25-5.81-168.68-8.81-255.8-7.38,4.8-17.07,6.16-27.49,2.89l-3.85-1.2,3.28-2.36,5.17-3.71,3.28-2.36-.09,4c-.49,23.08-19.3,36.71-41.39,30l-3.88-1.18,3.29-2.38,5.14-3.72,3.28-2.38-.08,4.05c-.49,23-19.54,36.64-41.69,29.89l-2.87-.87-1.45-.44,0-1.51,0-3,.59-42.35c-.07-23.07,19-37.08,41.35-30.47l3.9,1.16-3.29,2.41-5.11,3.73-3.29,2.4.09-4.07c.48-23.09,19.29-36.72,41.38-30l3.89,1.18-3.29,2.38-5.14,3.73-3.28,2.38.08-4.06c.39-18.32,12.65-30.77,28.73-31.62-1.85-53.45-3.5-100.89-4.72-135.27,0,1.12-60.36-18.21-175.59-18.21q-11.94,0-23.45.25-11.52-.24-23.46-.25c-115.23,0-175.63,19.33-175.59,18.21-.87,24.46-1.95,55.52-3.17,90.66a36,36,0,0,1,17.65,1l3.91,1.15L257,340.9l-5.11,3.73L248.61,347l.08-4.08c.49-23.09,19.3-36.71,41.39-30l3.88,1.18-3.29,2.38-5.14,3.72-3.28,2.38.09-4.05c.48-23,19.72-36.78,41.73-29.88l3.84,1.2-3.26,2.36L319.48,296l-3.25,2.36,0-4c.31-23.32,19.3-37.08,41.7-30.26l2.88.88,1.45.44,0,1.52,0,3-.74,42.54c-.31,23.32-19.3,37.09-41.7,30.26l-3.88-1.18,3.28-2.38,5.14-3.72,3.29-2.38-.09,4.05c-.49,23.35-19.26,37.08-41.28,30.18l-3.86-1.21,3.28-2.35,5.17-3.72,3.28-2.35-.08,4c-.49,23.09-19.3,36.72-41.39,30l-3.88-1.19,3.28-2.38,5.14-3.72,3.29-2.38-.09,4.05c-.35,16.7-10.46,28.45-24.45,31.07-2.61,75.82-5.5,159.87-8.07,234.47,7.25-4.22,16.55-5.36,26.5-2.42l3.91,1.16-3.29,2.4-5.11,3.74-3.29,2.4.09-4.07c.48-23.09,19.29-36.72,41.38-30l3.88,1.18-3.28,2.38-5.14,3.73-3.29,2.38.09-4.06c.49-23,19.72-36.78,41.74-29.88l3.83,1.21-3.25,2.35-5.17,3.75-3.26,2.35.06-4c.3-23.32,19.29-37.09,41.7-30.26l2.87.87,1.45.45,0,1.52,0,3-.75,42.55c-.31,23.32-19.29,37.08-41.7,30.26l-3.88-1.18,3.28-2.39,5.15-3.72,3.28-2.38-.09,4.06c-.49,23.34-19.26,37.08-41.28,30.17l-3.85-1.2,3.28-2.36,5.17-3.71,3.28-2.36-.09,4c-.49,23.08-19.3,36.71-41.39,30l-3.88-1.18L250,700l5.14-3.72,3.28-2.38-.08,4.05c-.43,20-14.88,32.92-33.2,31.52-2.85,82.12-4.86,138.85-4.86,134.79q0,7.71-.09,14.85H661.68q-.09-7.14-.09-14.85c0,2.92-1-25.54-2.68-72.26Zm-.17-4.76c0-1.66-.11-3.35-.17-5.06-5.69,5.76-14.45,7.84-24.35,4.83l-5-1.54,2.61-1.88-.11,5.25c-.38,17.74-14.3,27.66-31.41,22.45l2.21-3.12,2.82,3.86-3.64,1.16.59-42.42c-.06-17.77,13.87-28,31.13-22.87l5,1.48-2.59,1.89.11-5.21c.29-13.94,8.74-23,20.57-23.86-.05-1.3-.09-2.61-.14-3.93-13.86.89-24,11.6-24.36,27.7l-3.21-1.67,5.11-3.73.62,3.56c-19.77-5.85-36.23,6.24-36.17,26.62l-.59,42.39,0,3-1.43-2,2.86.88c19.61,6,36.06-5.79,36.49-26.12l3.2,1.67-5.15,3.73-.59-3.56c10,3,19.08,1.46,25.66-3.53Zm-.39-11.37c-.53-15.15-1.11-31.82-1.73-49.64-9.73.73-16.43,8.2-16.68,19.91l-.11,5.22-.06,2.63-2.53-.74-5-1.49c-14.68-4.34-26,4-26,19l-.59,42.46-.08,6-3.56-4.88-2.83-3.86-3.56-4.88,5.78,1.76c14.58,4.44,25.89-3.63,26.21-18.67l.11-5.26.05-2.66,2.55.78,5,1.53c10.17,3.1,18.68.05,23-7.28Zm-11.13-322.3-.18-5.23c-5.63,6.26-14.59,8.58-24.76,5.4l-5.06-1.59,2.62-1.88-.11,5.3c-.37,17.81-14.06,27.73-31.11,22.54l-5-1.54,2.6-1.88-.11,5.25c-.38,17.74-14.3,27.66-31.41,22.45l2.21-3.12,2.82,3.86-3.64,1.16.59-42.42c-.06-17.77,13.87-28,31.13-22.87l5,1.48-2.59,1.89.11-5.21c.37-17.82,14.06-27.73,31.1-22.54l5,1.53-2.6,1.89.11-5.26c.3-13.94,9.06-23.13,21-23.83,0-1.31-.09-2.62-.13-3.93-14,.78-24.5,11.57-24.84,27.68l-3.2-1.68L622,407.3l.6,3.56c-19.53-5.95-35.75,5.8-36.18,26.21l-3.21-1.67,5.11-3.73.62,3.56c-19.77-5.85-36.23,6.24-36.17,26.62l-.59,42.39,0,3-1.43-2,2.86.88c19.61,6,36.06-5.79,36.49-26.12l3.2,1.67-5.15,3.73-.59-3.57c19.53,6,35.75-5.79,36.18-26.21l3.19,1.68-5.17,3.72-.57-3.56c10.2,3.19,19.51,1.45,26.11-3.92Zm-.42-12c-.56-16.53-1.12-32.77-1.67-48.55-9.9.62-16.9,8.17-17.15,19.89l-.11,5.25,0,2.67-2.55-.78-5-1.53c-14.49-4.42-25.58,3.62-25.9,18.76l-.11,5.21-.06,2.64-2.53-.75-5-1.47c-14.68-4.35-26,3.94-25.95,19l-.59,42.46-.08,6-3.56-4.88-2.82-3.86-3.57-4.88,5.78,1.76c14.58,4.44,25.89-3.63,26.21-18.67l.11-5.26.05-2.66,2.55.78,5,1.53c14.48,4.41,25.58-3.63,25.9-18.77l.11-5.3.06-2.68,2.56.8,5.06,1.59c10.54,3.3,19.28-.18,23.31-8.36Zm-408.21-101c0,1.36-.09,2.73-.14,4.11a27.31,27.31,0,0,1,15.68.31l5,1.48-2.59,1.89.11-5.21c.38-17.81,14.07-27.73,31.11-22.54l5,1.53L290.18,324l.12-5.26c.37-17.72,14.43-27.76,31.39-22.44l5.1,1.6-2.62,1.89.07-5.34c.24-18,14.08-28,31.42-22.75l-2.22,3.12L350.62,271l3.65-1.15-.74,42.56c-.24,18-14.08,28.05-31.42,22.77h0l-5-1.54,2.6-1.88-.11,5.25c-.38,18.06-14,28.06-30.94,22.75l-5.06-1.59,2.62-1.88-.11,5.3C285.7,379.35,272,389.27,255,384.08l-5-1.53,2.6-1.89-.11,5.26c-.25,12-6.73,20.45-16.2,23,0,1.36-.09,2.72-.14,4.08,11.71-2.61,20-12.68,20.27-27l3.2,1.68-5.14,3.72-.6-3.56c19.54,6,35.75-5.8,36.18-26.21l3.2,1.68L288,367l-.58-3.56c19.44,6.09,35.61-5.74,36.05-26.41l3.2,1.67-5.14,3.73-.6-3.57c19.85,6.05,36.22-5.82,36.49-26.46l.75-42.55.05-3,1.43,2-2.87-.88c-19.85-6-36.22,5.83-36.49,26.46l-3.2-1.66,5.17-3.75.58,3.56c-19.46-6.1-36.07,5.77-36.5,26.11l-3.2-1.67,5.14-3.73.59,3.56c-19.53-5.95-35.74,5.8-36.18,26.22l-3.2-1.67,5.11-3.74.62,3.56a31.79,31.79,0,0,0-16.66-.65ZM238.3,349c-.61,17.75-1.26,36.41-1.92,55.69,7.14-2.48,11.82-9.24,12-18.84l.11-5.25.06-2.67,2.55.78,5,1.53c14.49,4.42,25.58-3.62,25.9-18.76l.12-5.3,0-2.69,2.56.8,5.06,1.59c14.37,4.5,25.38-3.59,25.71-19l.11-5.26.06-2.66,2.54.77,5,1.54h0c14.78,4.5,26-3.63,26.21-19l.75-42.57.1-6,3.55,4.87,2.82,3.87,3.54,4.87-5.76-1.75c-14.78-4.5-26,3.62-26.21,18.94l-.07,5.35,0,2.7-2.58-.81-5.1-1.6c-14.4-4.51-25.84,3.66-26.16,18.69l-.11,5.26-.06,2.66-2.55-.78-5-1.53c-14.48-4.41-25.58,3.63-25.9,18.76l-.11,5.22-.05,2.64-2.53-.75-5-1.48c-5.52-1.63-10.55-1.48-14.69.14ZM227.7,656.55l-.18,5.36c5.69-5.84,14.58-8,24.59-5.07l5,1.48-2.58,1.89.11-5.22c.37-17.81,14.06-27.72,31.1-22.53l5,1.53-2.6,1.89.11-5.26c.37-17.73,14.44-27.77,31.4-22.45l5.1,1.6-2.62,1.9.07-5.35c.24-18,14.08-28,31.42-22.74l-2.22,3.11-2.82-3.88,3.64-1.15-.74,42.57c-.24,18-14.08,28-31.42,22.76h0l-5-1.53,2.61-1.89-.12,5.26c-.38,18-14,28.06-30.94,22.74L281.55,670l2.62-1.88-.11,5.3C283.68,691.22,270,701.14,253,696l-5-1.54,2.61-1.88-.11,5.25c-.33,15.44-10.93,25-25,23.72-.05,1.32-.1,2.63-.14,3.94,16.15,1.32,28.65-9.88,29-27.57l3.2,1.67-5.14,3.73-.59-3.57c19.53,5.95,35.75-5.79,36.18-26.21l3.19,1.68L286,678.89l-.57-3.57c19.43,6.1,35.61-5.73,36-26.41l3.2,1.68-5.14,3.72-.59-3.56c19.84,6,36.22-5.83,36.49-26.46l.74-42.56.06-3,1.42,2-2.87-.87c-19.84-6.05-36.22,5.82-36.49,26.45l-3.2-1.66,5.17-3.74.58,3.55c-19.45-6.1-36.07,5.77-36.5,26.12l-3.2-1.68,5.14-3.72.6,3.56c-19.53-6-35.75,5.8-36.18,26.21l-3.21-1.67,5.11-3.73.62,3.56c-9.89-2.93-18.95-1.37-25.53,3.48Zm-.44,12.65c-.57,16.73-1.13,32.89-1.66,48.27,11.87,1.16,20.51-6.65,20.78-19.77l.12-5.26.05-2.66,2.55.78,5,1.53c14.48,4.41,25.58-3.63,25.9-18.77l.11-5.3.06-2.68,2.56.8,5.06,1.59c14.36,4.5,25.38-3.6,25.7-19l.11-5.25.06-2.67,2.55.78,5,1.53h0c14.78,4.51,26-3.63,26.21-19l.74-42.57.11-6,3.54,4.87,2.82,3.88,3.54,4.87-5.76-1.76c-14.78-4.5-26,3.63-26.21,19l-.07,5.34,0,2.71-2.58-.81-5.1-1.6c-14.4-4.51-25.84,3.65-26.16,18.69L292.2,636l-.06,2.66-2.54-.77-5-1.54c-14.49-4.41-25.58,3.63-25.9,18.77l-.11,5.21-.06,2.64-2.53-.75-5-1.48c-10.76-3.18-19.71.42-23.71,8.5ZM439,747.68l-3.88-1.18,3.28-2.38,5.14-3.72,3.29-2.38-.09,4.05c-.49,23.35-19.26,37.08-41.28,30.18L401.6,771l3.27-2.35L410,765l3.28-2.35-.08,4c-.49,23.08-19.3,36.71-41.39,30L368,795.46l3.28-2.38,5.14-3.73,3.29-2.38-.09,4.06c-.48,23-19.53,36.64-41.69,29.89l-2.86-.87-1.45-.44,0-1.52,0-3,.59-42.36c-.07-23.06,19-37.07,41.35-30.46l3.91,1.16-3.29,2.4-5.11,3.74-3.29,2.4.08-4.07c.49-23.09,19.3-36.72,41.39-30l3.88,1.18-3.28,2.38-5.14,3.73-3.29,2.37.09-4.05c.48-23,19.72-36.78,41.74-29.88l3.83,1.2-3.25,2.36L438.68,701l-3.25,2.36.05-4c.31-23.32,19.3-37.09,41.7-30.26l2.88.87,1.45.45,0,1.52-.06,3-.74,42.55C480.38,740.75,461.4,754.51,439,747.68Zm1.17-3.85.6,3.56,5.14-3.72L442.7,742c-.44,20.68-16.61,32.51-36.05,26.41l.58,3.56,5.17-3.71-3.19-1.68c-.44,20.41-16.65,32.16-36.18,26.21l.59,3.56,5.14-3.72-3.2-1.68c-.43,20.34-16.87,32.1-36.48,26.12l-2.86-.87,1.42,2,.05-3,.58-42.4c-.06-20.37,16.41-32.46,36.18-26.61l-.62-3.56-5.11,3.73,3.21,1.67c.43-20.42,16.64-32.16,36.18-26.21l-.6-3.57-5.14,3.73,3.2,1.67c.43-20.34,17-32.21,36.5-26.11l-.58-3.56-5.17,3.75,3.2,1.66c.27-20.63,16.64-32.5,36.49-26.45l2.87.87-1.43-2-.05,3-.74,42.55C476.38,738,460,749.87,440.16,743.83Zm2.32-7.62h0c14.78,4.5,26-3.63,26.21-19l.75-42.57.11-6,3.54,4.87,2.82,3.88,3.54,4.87-5.76-1.76c-14.78-4.5-26,3.63-26.21,18.94l-.07,5.35,0,2.71-2.58-.81-5.1-1.6c-14.4-4.52-25.84,3.65-26.16,18.68l-.11,5.26-.06,2.66-2.55-.77-5-1.54c-14.49-4.41-25.58,3.63-25.9,18.77l-.11,5.21-.06,2.64-2.53-.75-5-1.48c-14.69-4.34-26,3.94-25.95,19l-.59,42.46-.09,6L342,816.43l-2.82-3.87-3.56-4.87,5.78,1.76c14.57,4.44,25.88-3.63,26.2-18.67l.11-5.26.06-2.66,2.55.77,5,1.54c14.48,4.41,25.58-3.63,25.9-18.77l.11-5.3.05-2.68,2.57.8L409,760.8c14.36,4.51,25.37-3.59,25.7-19l.11-5.26.06-2.66,2.54.78Zm-1.17,3.86c17.34,5.28,31.18-4.74,31.42-22.77l.74-42.56-3.64,1.15,2.82,3.88,2.21-3.12c-17.34-5.28-31.18,4.74-31.41,22.75l-.07,5.35,2.61-1.9-5.1-1.6c-16.95-5.32-31,4.72-31.39,22.45l-.11,5.25,2.6-1.88-5-1.53c-17-5.2-30.73,4.72-31.11,22.53l-.11,5.22,2.59-1.9-5-1.48c-17.25-5.1-31.18,5.1-31.13,22.88l-.59,42.42,3.65-1.16-2.82-3.86-2.22,3.11c17.12,5.22,31-4.71,31.41-22.44l.11-5.26-2.6,1.89,5,1.53c17,5.2,30.73-4.72,31.11-22.53l.11-5.3-2.62,1.88,5.06,1.58c16.95,5.32,30.56-4.69,30.94-22.74l.11-5.26-2.6,1.89,5,1.53Zm133-90.44-3.88-1.19,3.28-2.38,5.14-3.72,3.29-2.38-.09,4c-.49,23.35-19.26,37.08-41.28,30.18L536.94,673l3.28-2.35,5.17-3.72,3.28-2.35-.08,4c-.49,23.08-19.3,36.71-41.39,30l-3.88-1.18L506.6,695l5.14-3.73,3.29-2.38-.09,4.06c-.48,23-19.53,36.64-41.69,29.89l-2.86-.87-1.45-.44,0-1.52,0-3,.59-42.36c-.07-23.06,19-37.07,41.35-30.46l3.91,1.16-3.29,2.4-5.11,3.74-3.29,2.4.08-4.07c.49-23.09,19.3-36.72,41.39-30l3.88,1.18-3.29,2.38-5.14,3.73-3.28,2.38.09-4.06c.48-23,19.72-36.78,41.73-29.88l3.84,1.2-3.26,2.36L574,602.9l-3.25,2.35.05-4c.31-23.32,19.3-37.09,41.7-30.26l2.88.87,1.45.45,0,1.52-.05,3L616,619.37C615.73,642.69,596.74,656.45,574.34,649.63Zm1.17-3.86.6,3.56,5.14-3.72-3.2-1.68c-.44,20.68-16.61,32.51-36,26.41l.58,3.57,5.17-3.72-3.2-1.68c-.43,20.41-16.64,32.16-36.18,26.21l.6,3.56,5.14-3.72-3.2-1.68C510.48,713.22,494,725,474.43,719l-2.87-.87,1.43,2,0-3,.59-42.4c-.06-20.37,16.41-32.46,36.18-26.61l-.62-3.56-5.11,3.73,3.2,1.67c.44-20.42,16.65-32.16,36.18-26.21l-.59-3.56-5.14,3.72,3.2,1.68c.43-20.35,17-32.22,36.5-26.12l-.58-3.56-5.17,3.75,3.2,1.66c.27-20.63,16.64-32.5,36.49-26.45l2.87.87-1.43-2,0,3L612,619.3C611.73,639.94,595.36,651.81,575.51,645.77Zm2.32-7.62h0c14.78,4.5,26-3.63,26.21-19l.75-42.57.1-6,3.55,4.87,2.82,3.88,3.54,4.87L609,582.45c-14.78-4.5-26,3.63-26.21,18.95l-.07,5.34,0,2.71-2.58-.81L575,607c-14.4-4.52-25.84,3.65-26.16,18.68l-.11,5.26-.06,2.66-2.55-.77-5-1.54c-14.48-4.41-25.58,3.63-25.9,18.77l-.11,5.21,0,2.64-2.53-.75-5-1.48c-14.69-4.34-26,3.94-26,19L481,717.21l-.09,6-3.56-4.88-2.82-3.87L471,709.63l5.78,1.76c14.57,4.44,25.88-3.63,26.2-18.67l.11-5.26.06-2.66,2.55.77,5,1.54c14.49,4.41,25.58-3.63,25.9-18.77l.12-5.3,0-2.68,2.57.8,5,1.58c14.37,4.51,25.38-3.59,25.71-19l.11-5.25.06-2.67,2.54.78ZM576.66,642c17.34,5.28,31.18-4.74,31.42-22.77l.74-42.56-3.65,1.15,2.82,3.88,2.22-3.12c-17.34-5.28-31.18,4.74-31.42,22.75l-.07,5.35,2.62-1.9-5.1-1.6c-17-5.32-31,4.72-31.39,22.45l-.12,5.25,2.61-1.88-5-1.53c-17-5.2-30.73,4.72-31.11,22.53l-.11,5.22,2.59-1.89-5-1.48c-17.25-5.11-31.18,5.09-31.13,22.87L477,717.15l3.65-1.16-2.82-3.86-2.22,3.11c17.12,5.22,31-4.71,31.41-22.44l.11-5.26-2.6,1.89,5,1.53c17,5.2,30.73-4.72,31.11-22.53l.11-5.3L538.12,665l5.06,1.58c17,5.32,30.56-4.69,30.94-22.74l.11-5.26-2.6,1.89,5,1.53ZM441,438.78l-3.88-1.18,3.29-2.38,5.14-3.72,3.28-2.38-.08,4.05c-.49,23.35-19.27,37.08-41.29,30.18l-3.85-1.21,3.28-2.35,5.17-3.72,3.28-2.35-.09,4c-.48,23.09-19.29,36.72-41.38,30L370,486.56l3.28-2.38,5.14-3.73,3.29-2.38-.09,4.06c-.49,23-19.54,36.64-41.69,29.89l-2.86-.87-1.45-.44,0-1.52,0-3,.59-42.36c-.07-23.06,19-37.07,41.35-30.46l3.91,1.16-3.29,2.4-5.11,3.73-3.3,2.41.09-4.08c.49-23.08,19.3-36.71,41.39-30l3.88,1.18-3.29,2.38-5.14,3.72-3.28,2.39.08-4.06c.49-23,19.73-36.78,41.74-29.88l3.83,1.2-3.25,2.36-5.17,3.75-3.25,2.35.05-4c.31-23.32,19.29-37.08,41.7-30.25l2.87.87,1.46.45,0,1.52-.05,3-.75,42.54C482.4,431.84,463.41,445.61,441,438.78Zm1.18-3.85.6,3.56,5.14-3.73-3.2-1.67c-.44,20.68-16.61,32.51-36.05,26.41l.57,3.56,5.17-3.71-3.19-1.68c-.43,20.41-16.65,32.16-36.18,26.21l.6,3.56,5.14-3.72-3.2-1.68c-.43,20.34-16.88,32.1-36.49,26.12l-2.86-.87,1.43,2,0-3,.59-42.4c-.06-20.37,16.41-32.46,36.17-26.61l-.61-3.57-5.11,3.74,3.2,1.67c.43-20.42,16.65-32.16,36.18-26.21l-.59-3.56L404.39,413l3.2,1.68c.42-20.35,17-32.22,36.5-26.12l-.58-3.56-5.18,3.75,3.2,1.66c.28-20.63,16.65-32.5,36.5-26.46l2.87.88-1.43-2-.05,3-.75,42.55C478.4,429.1,462,441,442.18,434.93Zm2.32-7.62h0c14.78,4.5,26-3.63,26.21-19l.75-42.57.1-6,3.54,4.87,2.82,3.88,3.54,4.87-5.76-1.76c-14.77-4.5-26,3.63-26.21,18.94l-.07,5.35,0,2.71-2.59-.81-5.1-1.6c-14.4-4.52-25.84,3.65-26.15,18.68l-.12,5.26-.05,2.66-2.55-.77-5-1.54c-14.48-4.41-25.58,3.63-25.9,18.77l-.11,5.21-.05,2.64-2.54-.75-5-1.48c-14.68-4.35-26,3.94-25.95,19l-.59,42.46-.08,6L344,507.53l-2.82-3.87-3.56-4.87,5.77,1.76c14.58,4.44,25.89-3.63,26.21-18.68l.11-5.25.06-2.66,2.54.77,5,1.53c14.49,4.42,25.58-3.62,25.9-18.76l.11-5.3.06-2.69,2.56.81,5.06,1.58c14.36,4.51,25.38-3.59,25.71-19l.11-5.26.05-2.66,2.55.78Zm-1.18,3.86c17.35,5.28,31.19-4.74,31.42-22.77l.75-42.56L471.84,367l2.82,3.88,2.22-3.12c-17.34-5.28-31.18,4.74-31.42,22.75l-.07,5.35L448,394l-5.1-1.6c-17-5.32-31,4.72-31.4,22.45l-.11,5.25,2.61-1.88-5-1.54c-17-5.19-30.73,4.73-31.11,22.54l-.11,5.21,2.59-1.89-5-1.48c-17.25-5.1-31.18,5.1-31.13,22.87l-.59,42.43,3.65-1.16-2.83-3.86-2.21,3.11c17.12,5.22,31-4.71,31.41-22.44l.11-5.26-2.6,1.89,5,1.53c17,5.19,30.73-4.72,31.1-22.54l.12-5.3-2.62,1.89,5.06,1.58c16.94,5.32,30.56-4.69,30.94-22.75l.11-5.25-2.6,1.88,5,1.54Zm133-90.45-3.88-1.18,3.29-2.38,5.14-3.72,3.28-2.38-.08,4.05c-.5,23.35-19.27,37.08-41.29,30.18L539,364.08l3.28-2.35,5.17-3.72,3.28-2.35-.09,4c-.48,23.09-19.29,36.72-41.38,30l-3.89-1.18,3.29-2.38,5.14-3.73L517,380l-.08,4.06c-.49,23-19.54,36.64-41.69,29.89l-2.87-.87-1.44-.44,0-1.52,0-3,.59-42.36c-.07-23.06,19-37.07,41.35-30.46l3.91,1.16-3.3,2.4-5.11,3.73L505.17,345l.09-4.08c.49-23.08,19.3-36.71,41.39-30l3.88,1.18-3.29,2.38-5.14,3.73-3.28,2.38.08-4.06c.49-23,19.73-36.78,41.74-29.88l3.83,1.2-3.25,2.36L576.05,294l-3.25,2.35.05-4c.31-23.32,19.29-37.08,41.7-30.25l2.87.87,1.46.45,0,1.52-.05,3-.75,42.55C617.75,333.79,598.76,347.55,576.35,340.72Zm1.18-3.85.59,3.56,5.14-3.73-3.2-1.67c-.43,20.68-16.6,32.51-36,26.41l.57,3.56,5.17-3.71-3.19-1.68c-.43,20.41-16.65,32.16-36.18,26.21l.6,3.56,5.14-3.72-3.2-1.68c-.43,20.34-16.88,32.1-36.49,26.12l-2.86-.87,1.43,2,0-3,.59-42.4c-.06-20.37,16.4-32.46,36.17-26.61l-.62-3.56-5.11,3.73,3.21,1.67c.43-20.41,16.65-32.16,36.18-26.21l-.59-3.56L539.73,315l3.2,1.68c.43-20.35,17.05-32.22,36.5-26.12l-.58-3.56-5.17,3.75,3.2,1.66c.27-20.63,16.65-32.5,36.49-26.46l2.88.88-1.43-2-.05,3L614,310.4C613.75,331,597.37,342.91,577.53,336.87Zm2.32-7.62h0c14.78,4.5,26-3.63,26.21-19l.74-42.57.11-6,3.54,4.87,2.82,3.88,3.54,4.87-5.76-1.76c-14.77-4.5-26,3.63-26.21,18.94l-.07,5.35,0,2.71-2.59-.81-5.1-1.6c-14.4-4.52-25.84,3.65-26.16,18.68l-.11,5.26,0,2.66-2.55-.77-5-1.54c-14.48-4.41-25.58,3.63-25.9,18.77l-.11,5.21-.06,2.64-2.53-.75-5-1.48c-14.68-4.35-26,3.94-25.95,19L483,408.31l-.08,6-3.56-4.88-2.82-3.86L473,400.73l5.78,1.76c14.58,4.44,25.89-3.63,26.21-18.67l.11-5.26.05-2.66,2.55.77,5,1.53c14.49,4.42,25.58-3.62,25.9-18.76l.11-5.3.06-2.69,2.56.81,5.06,1.59c14.36,4.5,25.38-3.6,25.7-19l.12-5.26,0-2.66,2.55.78Zm-1.18,3.86c17.34,5.28,31.18-4.74,31.42-22.77l.75-42.56-3.65,1.15,2.82,3.88,2.22-3.12c-17.34-5.28-31.18,4.74-31.42,22.75l-.07,5.35,2.62-1.9-5.1-1.6c-17-5.32-31,4.72-31.4,22.45l-.11,5.25,2.6-1.88-5-1.53c-17.05-5.2-30.74,4.72-31.11,22.53l-.11,5.21,2.59-1.89-5-1.48c-17.26-5.1-31.18,5.1-31.13,22.88L479,408.25l3.64-1.16-2.82-3.86-2.21,3.12c17.11,5.21,31-4.72,31.41-22.45l.11-5.26-2.6,1.89,5,1.53c17,5.19,30.73-4.72,31.1-22.53l.11-5.3-2.61,1.88,5.05,1.58C562.14,363,575.76,353,576.14,335l.11-5.26-2.61,1.89,5,1.53Z"/> </g> <g> <g> <path class="cls-22" d="M434.85,254.28c101.27,0,207.13,15.11,207.13,15.11l15.89-163.9c0-14.33-15.29-26-34.1-26,0,0-79.83-15.56-188.92-15.56S261.46,79.51,261.46,79.51c-18.8,0-34.09,11.65-34.09,26l9.11,166.6S333.58,254.28,434.85,254.28Z"/> <path class="cls-23" d="M665,163a22.09,22.09,0,0,0,4.38-11.7,21.3,21.3,0,0,0-3.63-10.58c-34.39-8.35-77.24-15-125.4-19.16-28.22-1.92-58-3-88.79-3-93.34,0-177.53,9.55-236.51,24a20.47,20.47,0,0,0-2.52,8.69,21.18,21.18,0,0,0,3.44,10.27c57.91-11.72,132.71-18.78,214.39-18.78,39.23,0,76.87,1.63,111.81,4.62,45.69,3.1,87.39,8.47,122.83,15.59ZM441.38,145.85C307.31,145.85,243.57,158,219.66,163c-.8.25-1.76,2.54-1.89,2.85-1.18,4.14-2.31,8.28-3.38,12.39a162.42,162.42,0,0,0,0,35.72c63.46-13.44,140.42-21.31,223.37-21.31,85.54,0,164.7,8.37,229.26,22.58a162.32,162.32,0,0,0,.38-38.61c-1-4-1.33-6.73-2.48-10.77C627.19,157,523.53,145.85,441.38,145.85ZM236.32,270.46C295.83,259.37,365.7,253,440.43,253s144.77,6.4,204.33,17.52c8.65-19.72,15.24-26.41,19.69-50.53-62.09-12.41-139.38-20.07-223.07-20.07-84.22,0-162,7.76-224.26,20.31,4.32,24.54,10.75,31.43,19.2,50.25ZM542.12,80.11c45.69,3.1,87.39,8.48,122.83,15.59A22.09,22.09,0,0,0,669.33,84a21.36,21.36,0,0,0-3.63-10.58c-34.39-8.35-77.24-15-125.4-19.16-28.22-1.91-58-2.95-88.79-2.95-93.34,0-177.53,9.54-236.51,24A20.47,20.47,0,0,0,212.48,84a21.18,21.18,0,0,0,3.44,10.27c57.91-11.72,132.71-18.78,214.39-18.78,39.23,0,76.87,1.63,111.81,4.62Zm0,32.67c45.69,3.09,87.39,8.47,122.83,15.58a22.06,22.06,0,0,0,4.38-11.7,21.36,21.36,0,0,0-3.63-10.58c-34.39-8.35-77.24-15-125.4-19.16-28.22-1.91-58-3-88.79-3C358.17,84,274,93.52,215,108a20.39,20.39,0,0,0-2.52,8.68,21.22,21.22,0,0,0,3.44,10.28c57.91-11.72,132.71-18.78,214.39-18.78,39.23,0,76.87,1.63,111.81,4.62Z"/> <path class="cls-24" d="M668.71,80.6V63.22c0-19.9-3.69-33.67-33.83-43.12S546.11,1.59,430.67,1.59,271.28,10.65,245.25,20.1s-32.14,23.22-32.14,43.12V80.1c27.24-7.06,104-23.85,217.56-23.85,116.4,0,207.54,17.64,238,24.35Z"/> </g> <path class="cls-25" d="M225,45.08a21.83,21.83,0,0,0-3,11.05V68.71l3-.6h0v-23ZM244.23,32a31.29,31.29,0,0,0-9.7,3.69V66.31q4.71-.86,9.7-1.7h0V32Zm19.56-3.47q-4.46,1-7.8,1.77l-1.9.48V63q3.55-.56,7.24-1.09l2.46-.36h0V28.49Zm19.27-3.74c-3.37.59-6.61,1.19-9.71,1.78v33.7q4.81-.65,9.71-1.26h0V24.75Zm19.41-3.09-1.91.28q-4,.58-7.79,1.19V57.81c3.21-.37,6.44-.72,9.7-1.07h0V21.66Zm19.42-2.56c-3.28.39-6.51.8-9.71,1.22V55.76q4.81-.46,9.71-.9h0V19.1ZM341.3,17c-3.27.32-6.51.64-9.71,1v36c3.21-.25,6.45-.5,9.71-.73h0V17Zm19.26-1.62c-3.26.24-6.5.49-9.7.76V52.68c3.21-.2,6.45-.39,9.7-.57h0V15.4Zm19.12-1.21c-3.27.17-6.5.36-9.71.56V51.63q4.81-.23,9.71-.42h0v-37Zm19.26-.84c-3.26.11-6.5.24-9.71.37V50.87q4.83-.15,9.71-.27h0V13.35Zm19.56-.47c-3.26,0-6.49.11-9.71.19V50.39c3.22,0,6.46-.1,9.71-.13h0V12.88Zm19.27-.11H434.4l-6.34,0V50.2h9.71V12.77Zm19.41.23c-3.23-.07-6.46-.12-9.71-.16V50.27l9.71.14h0Zm19.41.57q-4.83-.18-9.71-.33V50.62c3.25.08,6.48.17,9.71.27h0V13.57Zm19.41.92c-3.22-.18-6.46-.35-9.7-.5V51.23c3.24.13,6.48.26,9.7.41h0V14.49Zm19.27,1.24q-4.83-.36-9.71-.67V52.11c3.25.16,6.48.35,9.71.54h0V15.73Zm19.11,1.57c-3.22-.29-6.45-.57-9.71-.84V53.23l9.71.67h0V17.3Zm19.27,1.92q-4.83-.52-9.71-1V54.63c3.25.26,6.48.53,9.71.81h0V19.22Zm19.56,2.3c-3.22-.41-6.46-.8-9.71-1.19v36c3.25.31,6.48.62,9.71,1h0V21.52Zm19.26,2.64c-3.15-.47-6.39-.93-9.7-1.38V58.26c3.24.35,6.48.71,9.7,1.08h0V24.16Zm19.41,3.06c-3.12-.53-6.36-1.06-9.7-1.59V60.49c3.25.39,6.48.8,9.7,1.21h0V27.22Zm19.42,3.61-2.44-.49c-2.16-.44-4.58-.9-7.27-1.4V63c3.3.46,6.53.91,9.71,1.37h0V30.83Zm19.41,4.82A31.25,31.25,0,0,0,641,32V65.81q5,.75,9.71,1.53h0V35.65Zm9.56,9.43V68.93l3,.53V56.13a21.83,21.83,0,0,0-3-11.05Z"/> </g> </g> <g> <path class="cls-26" d="M608.06,1323.91a163.73,163.73,0,1,0-163.73,163.73A163.74,163.74,0,0,0,608.06,1323.91Z"/> <path class="cls-27" d="M608,1320.53a163.74,163.74,0,1,0-160.33,167.09A163.74,163.74,0,0,0,608,1320.53Z"/> </g> </g> </g> </g> </g> </svg>