<?xml version="1.0" standalone="no"?>
<!DOCTYPE svg PUBLIC "-//W3C//DTD SVG 20010904//EN"
 "http://www.w3.org/TR/2001/REC-SVG-20010904/DTD/svg10.dtd">
<svg version="1.0" xmlns="http://www.w3.org/2000/svg"
 width="375.000000pt" height="666.000000pt" viewBox="0 0 375.000000 666.000000"
 preserveAspectRatio="xMidYMid meet">

<g transform="translate(0.000000,666.000000) scale(0.100000,-0.100000)"
fill="#000000" stroke="none">
<path d="M1918 5293 c-10 -2 -18 -9 -18 -15 0 -6 10 -8 23 -4 12 3 34 6 50 6
15 0 27 5 27 10 0 10 -49 12 -82 3z"/>
<path d="M1930 5190 c0 -5 18 -10 40 -10 22 0 40 5 40 10 0 6 -18 10 -40 10
-22 0 -40 -4 -40 -10z"/>
<path d="M2236 5144 c-4 -9 -4 -19 -1 -22 3 -3 5 0 5 7 0 9 8 11 21 8 13 -3
19 -1 16 6 -6 19 -34 20 -41 1z"/>
<path d="M1435 5140 c-3 -5 3 -10 14 -10 12 0 21 5 21 10 0 6 -6 10 -14 10 -8
0 -18 -4 -21 -10z"/>
<path d="M1332 5113 c-6 -2 -10 -8 -7 -13 6 -10 45 -1 45 11 0 10 -17 11 -38
2z"/>
<path d="M1197 5063 c-13 -13 -7 -20 18 -20 20 0 23 2 14 13 -13 15 -22 17
-32 7z"/>
<path d="M2462 5024 c-13 -26 -21 -49 -18 -51 3 -3 13 13 22 36 18 45 20 46
60 31 27 -11 44 -1 44 25 0 6 -4 4 -8 -3 -7 -10 -15 -10 -36 -2 -39 15 -40 14
-64 -36z"/>
<path d="M1930 5020 c0 -5 16 -10 35 -10 19 0 35 5 35 10 0 6 -16 10 -35 10
-19 0 -35 -4 -35 -10z"/>
<path d="M2201 5014 c0 -11 3 -14 6 -6 3 7 2 16 -1 19 -3 4 -6 -2 -5 -13z"/>
<path d="M1280 5011 c-8 -6 -18 -7 -22 -5 -4 3 -5 -2 -2 -10 3 -9 8 -16 11
-16 12 0 43 22 43 30 0 12 -11 12 -30 1z"/>
<path d="M1151 4964 c-2 -18 52 -62 99 -80 25 -9 56 -26 69 -38 l24 -21 -12
23 c-7 12 -47 40 -90 62 -44 21 -81 45 -84 52 -3 7 -6 8 -6 2z"/>
<path d="M987 4943 c-12 -11 -7 -21 10 -19 14 1 36 -22 96 -104 18 -24 18 -24
0 7 -31 53 -82 123 -91 123 -5 0 -12 -3 -15 -7z"/>
<path d="M2727 4889 c-16 -23 -26 -43 -23 -46 2 -3 15 11 28 31 18 27 28 34
43 29 17 -5 18 -4 6 11 -19 22 -22 21 -54 -25z"/>
<path d="M2393 4863 c-13 -31 -21 -58 -19 -60 2 -3 12 16 21 41 18 48 27 52
69 36 15 -5 26 -6 26 -1 0 5 3 18 6 28 5 17 5 17 -6 1 -10 -16 -14 -17 -40 -3
-16 8 -30 15 -32 15 -2 0 -13 -26 -25 -57z"/>
<path d="M1643 4903 c-28 -5 -30 -23 -4 -23 26 0 51 10 51 21 0 9 -8 10 -47 2z"/>
<path d="M2840 4862 c0 -17 -60 -82 -76 -82 -8 0 -14 -4 -14 -10 0 -17 25 -11
48 10 26 24 56 79 48 88 -3 3 -6 0 -6 -6z"/>
<path d="M940 4831 c5 -11 15 -23 21 -27 6 -3 3 5 -6 20 -20 30 -30 35 -15 7z"/>
<path d="M1733 4843 c-31 -6 -29 -23 2 -23 16 0 25 6 25 15 0 8 -1 14 -2 14
-2 -1 -13 -4 -25 -6z"/>
<path d="M1860 4841 c0 -9 58 -21 108 -21 44 0 41 16 -5 24 -54 8 -103 7 -103
-3z"/>
<path d="M2253 4824 c-25 -28 -42 -29 -106 -10 -37 11 -47 11 -47 1 0 -7 25
-17 59 -25 64 -13 92 -6 112 31 16 30 7 31 -18 3z"/>
<path d="M1577 4813 c-14 -14 -6 -19 23 -15 17 2 30 8 30 13 0 10 -43 12 -53
2z"/>
<path d="M1493 4793 c-25 -5 -32 -23 -9 -23 22 0 46 11 46 21 0 5 -3 8 -7 8
-5 -1 -18 -4 -30 -6z"/>
<path d="M2627 4744 c-22 -31 -37 -57 -34 -60 2 -2 19 18 38 44 22 32 39 47
49 44 13 -5 13 -3 1 11 -7 10 -14 17 -15 17 0 -1 -18 -26 -39 -56z"/>
<path d="M777 4776 c-4 -10 0 -12 14 -9 13 4 30 -4 49 -22 29 -28 30 -28 50
-10 23 21 19 35 -5 15 -13 -11 -20 -9 -43 13 -31 30 -57 35 -65 13z"/>
<path d="M975 4780 c41 -74 108 -159 134 -170 37 -15 83 0 106 34 23 32 18 38
-9 11 -30 -30 -70 -41 -101 -27 -13 6 -45 41 -71 79 -48 69 -74 101 -59 73z"/>
<path d="M1110 4786 c0 -2 8 -10 18 -17 15 -13 16 -12 3 4 -13 16 -21 21 -21
13z"/>
<path d="M2862 4677 c-62 -63 -112 -120 -112 -127 0 -7 1 -11 3 -9 1 2 56 59
122 127 65 67 114 122 109 122 -6 0 -60 -51 -122 -113z"/>
<path d="M1400 4772 c0 -16 -59 -52 -84 -52 -11 0 -33 12 -50 28 -29 27 -30
27 -14 2 26 -42 60 -56 97 -40 33 13 69 55 57 67 -3 3 -6 1 -6 -5z"/>
<path d="M2296 4761 c-3 -5 22 -21 56 -35 61 -27 78 -25 78 9 0 6 -4 4 -8 -3
-7 -10 -21 -7 -65 12 -31 14 -59 22 -61 17z"/>
<path d="M1146 4737 c3 -10 9 -15 12 -12 3 3 0 11 -7 18 -10 9 -11 8 -5 -6z"/>
<path d="M2727 4681 c-9 -16 -31 -41 -49 -56 -38 -32 -73 -29 -124 10 -34 26
-44 30 -44 17 0 -11 103 -72 123 -72 22 0 84 56 103 92 20 39 13 46 -9 9z"/>
<path d="M2959 4606 c-147 -153 -176 -167 -239 -112 l-24 21 15 -25 c21 -32
62 -52 92 -45 27 7 275 251 265 261 -4 3 -53 -41 -109 -100z"/>
<path d="M738 4685 c6 -11 53 -64 105 -117 84 -88 97 -98 129 -98 36 0 59 17
72 54 5 15 1 13 -18 -7 -48 -52 -90 -33 -211 95 -48 51 -83 84 -77 73z"/>
<path d="M1650 4675 c-89 -18 -233 -70 -306 -110 -87 -48 -184 -122 -184 -140
0 -9 -12 -20 -27 -26 -63 -24 -204 -215 -262 -354 -65 -155 -84 -252 -85 -425
0 -138 3 -166 27 -260 52 -198 157 -380 297 -514 321 -307 778 -389 1185 -214
44 19 114 56 155 83 97 64 253 220 314 313 305 470 196 1108 -245 1441 -141
107 -266 163 -455 205 -88 20 -319 20 -414 1z m7 -235 l12 -25 293 2 c161 2
304 3 318 4 14 1 45 -4 70 -11 25 -6 82 -12 127 -13 45 -1 85 -6 89 -10 4 -4
3 -20 -2 -35 -8 -24 -16 -28 -69 -35 -33 -4 -68 -6 -77 -3 -10 2 -18 -1 -19
-7 -10 -119 -19 -199 -26 -227 l-9 -35 -512 -3 -511 -2 -18 27 c-10 16 -21 31
-25 34 -4 3 -10 34 -13 70 -3 35 -8 79 -10 97 -3 28 -1 32 15 27 14 -5 20 1
25 24 4 17 4 35 0 41 -3 6 3 10 15 10 11 0 20 -6 19 -12 -4 -35 1 -40 36 -34
22 4 35 3 35 -4 0 -13 41 -13 75 0 14 5 24 6 21 1 -7 -11 57 -19 82 -10 22 8
37 38 25 50 -4 4 -69 12 -143 16 -124 8 -131 10 -90 19 36 8 44 14 42 29 -6
31 20 40 119 40 90 0 94 -1 106 -25z m-288 -466 c1 16 7 18 37 13 20 -3 44
-13 53 -21 11 -10 21 -12 34 -5 13 8 19 6 24 -8 3 -10 12 -25 19 -33 13 -15
37 -137 29 -149 -2 -4 0 -13 5 -21 5 -7 4 -25 -2 -39 -17 -46 -9 -272 13 -328
12 -32 12 -76 -1 -68 -5 3 -3 -9 5 -27 12 -29 11 -35 -3 -53 -16 -19 -16 -19
1 -6 17 13 18 12 11 -13 -5 -19 -2 -31 7 -37 11 -7 11 -9 1 -9 -9 0 -7 -9 7
-29 11 -15 18 -31 14 -35 -3 -3 -1 -6 5 -6 21 0 13 -19 -20 -53 -18 -18 -35
-39 -37 -47 -10 -32 -1 -94 14 -103 27 -15 -2 -37 -49 -38 -33 -1 -26 -4 37
-15 61 -11 83 -20 102 -40 14 -15 25 -29 25 -31 0 -3 -40 -3 -88 0 -96 5 -147
24 -162 60 -5 12 -21 126 -35 252 -14 127 -37 320 -50 430 -40 333 -50 462
-34 481 11 13 14 12 25 -13 9 -21 13 -23 13 -9z m942 -208 c16 10 14 -74 -6
-256 -8 -69 -17 -168 -20 -220 -3 -52 -10 -138 -15 -190 -5 -52 -12 -132 -15
-177 -5 -61 -12 -87 -27 -103 -11 -12 -23 -18 -26 -15 -4 4 1 12 11 19 18 14
25 52 7 41 -5 -3 -10 3 -10 15 0 17 -4 19 -24 14 -13 -3 -27 -1 -30 5 -5 7 5
11 28 11 29 0 37 4 40 23 5 23 15 140 41 497 8 113 18 230 22 260 4 30 6 64 5
75 -1 11 1 14 4 7 3 -6 10 -10 15 -6z m-1391 -137 c0 -6 -4 -7 -10 -4 -5 3
-10 11 -10 16 0 6 5 7 10 4 6 -3 10 -11 10 -16z m34 6 c-4 -8 -8 -15 -10 -15
-2 0 -4 7 -4 15 0 8 4 15 10 15 5 0 7 -7 4 -15z m1236 -765 c-12 -8 -12 -10
-1 -10 8 0 12 -3 8 -6 -3 -3 -16 -2 -29 2 -22 7 -22 7 -3 15 28 11 43 10 25
-1z m-262 -48 c2 -15 -2 -22 -12 -22 -11 0 -16 9 -16 26 0 31 23 28 28 -4z
m82 8 c0 -11 -4 -20 -10 -20 -5 0 -10 9 -10 20 0 11 5 20 10 20 6 0 10 -9 10
-20z m95 -30 c3 -5 -1 -10 -10 -10 -9 0 -13 5 -10 10 3 6 8 10 10 10 2 0 7 -4
10 -10z"/>
<path d="M2329 4395 c-3 -3 -65 -6 -137 -6 -122 -1 -132 -3 -132 -20 0 -11 7
-19 15 -19 8 0 15 -7 15 -16 0 -10 -5 -14 -16 -10 -8 3 -12 2 -9 -4 3 -6 17
-10 30 -10 13 0 27 -5 30 -11 4 -6 45 -9 108 -7 56 2 112 -1 125 -5 16 -6 24
-4 28 7 10 26 -4 62 -28 74 -14 7 -17 11 -6 9 9 -1 18 3 20 8 3 11 -34 20 -43
10z m-64 -35 c11 -18 -43 -23 -60 -6 -15 15 -14 16 19 16 19 0 38 -4 41 -10z"/>
<path d="M1558 4383 c17 -2 47 -2 65 0 17 2 3 4 -33 4 -36 0 -50 -2 -32 -4z"/>
<path d="M1688 4383 c17 -2 33 -8 33 -14 1 -5 3 -13 4 -19 1 -5 3 -14 4 -19 0
-5 26 -15 57 -22 47 -11 57 -10 65 2 5 9 9 10 9 2 0 -8 9 -9 28 -4 15 4 44 6
65 3 32 -4 37 -1 37 16 0 13 -9 22 -27 28 -21 5 -24 8 -10 11 9 3 17 9 17 14
0 5 -66 8 -157 7 -87 0 -143 -3 -125 -5z"/>
<path d="M2363 4255 c-3 -9 -3 -18 -1 -21 3 -3 8 4 11 16 6 23 -1 27 -10 5z"/>
<path d="M892 4653 c6 -7 19 -11 28 -8 12 4 28 -6 49 -30 39 -45 41 -35 1 14
-22 29 -36 38 -59 38 -25 0 -28 -3 -19 -14z"/>
<path d="M1040 4571 c0 -13 35 -32 44 -24 3 3 6 11 6 16 0 6 -3 7 -6 4 -4 -3
-15 -2 -25 4 -13 6 -19 6 -19 0z"/>
<path d="M2996 4448 c-113 -89 -131 -100 -148 -89 -17 11 -18 10 -8 -9 6 -11
15 -20 21 -20 6 0 72 48 147 106 117 91 138 103 148 90 14 -20 28 -20 45 1 13
15 11 16 -13 10 -15 -4 -30 -3 -33 3 -12 19 -31 8 -159 -92z"/>
<path d="M560 4524 c0 -8 5 -12 10 -9 6 4 25 -3 43 -14 32 -20 33 -20 45 -1
17 27 15 32 -7 18 -15 -9 -24 -8 -45 5 -32 21 -46 22 -46 1z"/>
<path d="M509 4453 c6 -11 27 -31 47 -43 32 -20 44 -22 117 -16 71 5 86 4 115
-14 17 -11 32 -15 32 -10 0 6 -15 19 -32 31 -29 17 -43 19 -114 13 -86 -6
-107 -1 -153 40 l-24 21 12 -22z"/>
<path d="M3211 4413 c-28 -11 -80 -51 -74 -56 3 -4 26 5 50 20 43 25 44 25 59
7 13 -17 13 -16 3 9 -13 28 -15 29 -38 20z"/>
<path d="M3281 4366 c-13 -7 -19 -16 -14 -19 11 -7 51 18 43 26 -3 3 -16 0
-29 -7z"/>
<path d="M410 4343 c0 -9 349 -197 354 -192 2 2 9 15 15 29 11 23 11 23 -3 7
-14 -18 -23 -14 -185 72 -94 50 -173 91 -176 91 -3 0 -5 -3 -5 -7z"/>
<path d="M856 4320 c-25 -44 -61 -49 -119 -16 -28 15 -47 22 -45 14 3 -7 26
-24 52 -37 37 -19 53 -22 74 -15 24 8 70 69 60 79 -2 2 -12 -9 -22 -25z"/>
<path d="M3025 4303 c-50 -33 -49 -32 -43 -38 3 -3 26 6 51 21 26 14 51 23 57
19 6 -3 7 0 4 9 -9 22 -23 20 -69 -11z"/>
<path d="M3107 4273 c6 -14 14 -16 37 -7 26 10 18 21 -13 20 -18 -1 -27 -5
-24 -13z"/>
<path d="M2910 4250 c6 -11 13 -20 16 -20 2 0 0 9 -6 20 -6 11 -13 20 -16 20
-2 0 0 -9 6 -20z"/>
<path d="M3195 4186 c-116 -48 -145 -63 -145 -76 0 -5 30 5 68 21 109 50 195
80 210 74 8 -3 12 0 10 7 -8 23 -41 17 -143 -26z"/>
<path d="M379 4184 c-12 -15 -11 -16 8 -10 14 5 60 -8 140 -40 162 -63 151
-60 133 -41 -8 9 -40 25 -70 37 -51 20 -191 70 -196 70 -1 0 -8 -7 -15 -16z"/>
<path d="M2949 4183 c14 -27 21 -28 47 -7 18 15 18 15 -5 10 -14 -3 -32 0 -40
7 -12 10 -13 9 -2 -10z"/>
<path d="M252 4168 c5 -15 28 -23 28 -10 0 5 -7 13 -16 16 -10 4 -14 1 -12 -6z"/>
<path d="M3370 4145 c-21 -22 -85 -52 -102 -47 -4 1 -5 -5 -2 -12 5 -12 11
-12 41 1 50 20 80 41 87 60 10 25 1 25 -24 -2z"/>
<path d="M339 4096 c8 -10 31 -26 50 -35 40 -20 242 -91 259 -91 15 0 72 50
72 63 0 6 -10 1 -23 -11 -15 -15 -36 -22 -61 -22 -37 0 -194 54 -271 93 -34
17 -38 17 -26 3z"/>
<path d="M3000 4062 c0 -18 32 -50 56 -56 34 -9 134 22 134 41 0 11 -5 11 -29
-1 -16 -9 -47 -18 -69 -22 -35 -5 -44 -3 -66 19 -14 15 -26 23 -26 19z"/>
<path d="M3365 3992 c-38 -7 -228 -54 -241 -59 -8 -3 -14 -10 -14 -15 0 -6 7
-7 16 -4 30 12 237 56 260 56 25 0 33 15 12 22 -7 2 -22 3 -33 0z"/>
<path d="M264 3958 c-5 -8 0 -9 94 -28 62 -12 109 -13 98 -2 -12 11 -186 39
-192 30z"/>
<path d="M3432 3898 c-36 -23 -224 -68 -284 -68 -22 0 -49 5 -61 11 -22 12
-22 12 -3 -10 26 -28 75 -27 216 4 120 28 139 35 160 60 20 24 8 26 -28 3z"/>
<path d="M540 3886 c-102 -17 -117 -22 -80 -24 71 -5 210 17 210 34 0 8 -1 13
-2 13 -2 -1 -59 -11 -128 -23z"/>
<path d="M240 3830 c0 -5 3 -10 8 -10 4 -1 93 -18 197 -39 105 -21 192 -37
194 -35 10 9 -12 18 -71 30 -138 27 -323 64 -325 64 -2 0 -3 -4 -3 -10z"/>
<path d="M3210 3592 c0 -28 84 -44 108 -20 19 19 14 30 -7 18 -26 -14 -74 -13
-89 2 -9 9 -12 9 -12 0z"/>
<path d="M501 3560 c-28 -24 -49 -25 -80 -3 -18 12 -23 13 -19 2 3 -8 16 -21
31 -29 32 -18 76 -5 88 28 10 26 10 26 -20 2z"/>
<path d="M3086 3391 c15 -15 175 -44 186 -33 6 6 -22 15 -74 26 -94 18 -127
20 -112 7z"/>
<path d="M565 3353 c-75 -14 -214 -46 -232 -53 -13 -5 -23 -13 -23 -18 0 -4
51 5 113 20 61 15 129 29 149 30 38 3 49 12 26 20 -7 2 -22 3 -33 1z"/>
<path d="M3378 3320 c-60 -8 -108 -18 -108 -22 0 -11 21 -10 121 3 73 10 113
22 98 31 -2 2 -52 -3 -111 -12z"/>
<path d="M645 3274 c-15 -18 -49 -31 -142 -54 -149 -36 -188 -38 -221 -7 l-25
22 12 -22 c26 -51 69 -54 225 -17 128 30 162 45 171 75 10 29 3 30 -20 3z"/>
<path d="M3063 3266 c2 -6 32 -16 68 -23 35 -7 121 -25 191 -39 109 -24 155
-27 137 -10 -11 11 -399 82 -396 72z"/>
<path d="M3067 3164 c-13 -13 -7 -22 11 -17 15 3 215 -68 267 -95 6 -2 3 3 -5
12 -17 17 -185 89 -236 100 -16 4 -33 4 -37 0z"/>
<path d="M596 3144 c-21 -7 -42 -11 -47 -8 -5 3 -6 -2 -3 -11 4 -9 12 -14 18
-12 6 1 32 9 59 17 26 8 47 18 47 22 0 12 -30 9 -74 -8z"/>
<path d="M720 3092 c0 -17 -73 -56 -178 -96 -103 -39 -156 -45 -184 -19 -10 9
-18 12 -18 6 0 -20 42 -47 73 -47 31 0 185 55 256 91 35 18 68 59 57 70 -3 3
-6 1 -6 -5z"/>
<path d="M424 3076 c-26 -11 -55 -36 -42 -36 16 0 97 38 92 43 -10 9 -13 9
-50 -7z"/>
<path d="M3018 3072 c7 -18 71 -49 196 -94 96 -34 113 -37 138 -27 28 11 65
65 54 77 -3 3 -6 0 -6 -6 0 -25 -40 -52 -76 -52 -41 0 -151 37 -246 83 -37 18
-63 26 -60 19z"/>
<path d="M2946 2981 c5 -5 85 -50 178 -100 156 -85 170 -90 182 -74 7 10 13
23 13 28 0 6 -6 2 -14 -9 -13 -18 -22 -14 -180 73 -151 82 -207 108 -179 82z"/>
<path d="M3430 2942 c0 -5 11 -14 25 -20 29 -14 34 2 6 18 -24 12 -31 13 -31
2z"/>
<path d="M700 2869 c-58 -33 -131 -77 -164 -96 -63 -38 -60 -39 -92 20 -8 15
-17 27 -20 27 -7 0 37 -79 51 -90 6 -5 38 8 80 32 192 112 275 161 275 164 0
13 -38 -4 -130 -57z"/>
<path d="M2910 2874 c-10 -11 -8 -14 11 -14 13 0 38 -9 56 -19 32 -20 37 -19
58 19 6 11 3 10 -12 -3 -19 -17 -21 -17 -44 1 -36 28 -56 32 -69 16z"/>
<path d="M753 2738 c-73 -56 -130 -105 -127 -109 3 -5 46 24 97 63 51 39 111
85 135 101 38 28 53 48 35 46 -5 0 -67 -46 -140 -101z"/>
<path d="M2850 2811 c0 -17 80 -78 109 -84 16 -3 60 -3 98 0 47 4 77 2 94 -7
l24 -13 -20 23 c-18 21 -26 22 -96 17 -92 -7 -134 3 -176 43 -18 17 -33 27
-33 21z"/>
<path d="M810 2595 c-121 -121 -125 -124 -145 -107 -20 17 -20 17 -1 -5 11
-13 23 -23 27 -23 4 0 61 55 127 121 85 87 125 120 136 116 9 -4 16 -2 16 2 0
7 -23 21 -33 21 -1 0 -58 -56 -127 -125z"/>
<path d="M3215 2678 c-6 -12 -22 -29 -37 -38 -23 -12 -32 -13 -60 -1 -60 24
-73 23 -33 -3 54 -35 87 -34 119 5 14 17 26 37 26 45 0 20 -4 18 -15 -8z"/>
<path d="M2727 2673 c-13 -12 -7 -21 11 -16 14 3 44 -22 112 -94 51 -54 88
-89 82 -78 -17 30 -176 195 -188 195 -6 0 -14 -3 -17 -7z"/>
<path d="M525 2649 c16 -26 77 -99 84 -99 14 0 35 19 28 26 -3 4 -13 1 -21 -5
-12 -10 -20 -4 -45 33 -29 42 -65 78 -46 45z"/>
<path d="M1008 2632 c-9 -15 -66 -76 -127 -136 -100 -100 -111 -108 -128 -95
-15 12 -15 10 1 -9 l20 -23 114 113 c101 101 151 162 140 174 -2 2 -11 -9 -20
-24z"/>
<path d="M2647 2619 c4 -9 36 -46 69 -84 65 -71 77 -74 114 -30 20 25 2 31
-20 7 -12 -12 -24 -22 -28 -22 -4 0 -38 33 -75 73 -38 39 -65 65 -60 56z"/>
<path d="M1068 2553 c-25 -28 -48 -65 -48 -79 0 -4 16 14 35 40 27 34 43 46
63 46 21 0 24 2 12 10 -23 15 -34 12 -62 -17z"/>
<path d="M1095 2391 c-108 -156 -110 -158 -135 -145 -14 7 -40 26 -57 43 -18
16 -33 27 -33 22 0 -10 58 -63 91 -83 25 -16 26 -16 57 30 17 26 70 101 117
167 47 65 85 120 85 122 0 18 -32 -23 -125 -156z"/>
<path d="M2560 2536 c0 -9 6 -13 14 -10 15 6 49 -35 115 -138 24 -38 45 -68
48 -68 6 0 -10 27 -79 130 -59 88 -98 123 -98 86z"/>
<path d="M1290 2455 c0 -2 14 -11 30 -20 17 -9 30 -11 30 -6 0 6 -9 15 -19 21
-21 11 -41 13 -41 5z"/>
<path d="M2377 2443 c-13 -12 -7 -22 8 -17 8 4 23 0 32 -7 15 -13 15 -12 4 9
-11 22 -31 29 -44 15z"/>
<path d="M1416 2425 c-9 -26 -7 -32 5 -12 6 10 9 21 6 23 -2 3 -7 -2 -11 -11z"/>
<path d="M2979 2410 c-34 -39 -79 -40 -128 -4 l-36 26 37 -36 c26 -24 47 -36
67 -36 33 0 76 31 84 60 6 25 7 25 -24 -10z"/>
<path d="M2528 2415 c6 -11 21 -31 33 -45 l21 -25 -19 33 c-10 19 -24 39 -32
45 -12 10 -12 9 -3 -8z"/>
<path d="M956 2387 c-14 -19 -26 -40 -26 -48 0 -7 12 4 26 25 19 28 31 36 46
33 12 -4 18 -1 15 6 -8 24 -36 17 -61 -16z"/>
<path d="M1381 2344 c-12 -26 -20 -49 -17 -52 3 -2 15 17 26 43 27 62 20 68
-9 9z"/>
<path d="M2477 2379 c-9 -6 -22 -7 -27 -4 -6 3 -7 -1 -4 -10 4 -11 13 -14 28
-9 26 8 29 10 25 23 -3 6 -10 6 -22 0z"/>
<path d="M1507 2373 c-14 -13 -6 -20 18 -15 14 2 25 8 25 13 0 10 -34 12 -43
2z"/>
<path d="M2330 2342 c0 -23 68 -78 129 -104 80 -35 62 -11 -24 31 -35 18 -73
44 -85 58 -11 14 -20 21 -20 15z"/>
<path d="M1730 2331 c0 -11 59 -20 65 -10 3 3 -5 9 -18 13 -31 8 -47 7 -47 -3z"/>
<path d="M2597 2311 c28 -52 87 -111 112 -111 32 0 77 29 91 58 10 23 9 23
-25 -7 -48 -42 -78 -40 -124 7 -20 20 -44 48 -54 62 -17 23 -17 23 0 -9z"/>
<path d="M1230 2281 c0 -10 24 -21 43 -21 7 0 3 7 -7 15 -22 17 -36 19 -36 6z"/>
<path d="M1346 2265 c-9 -26 -7 -32 5 -12 6 10 9 21 6 23 -2 3 -7 -2 -11 -11z"/>
<path d="M2050 2270 c0 -5 11 -10 25 -10 14 0 25 5 25 10 0 6 -11 10 -25 10
-14 0 -25 -4 -25 -10z"/>
<path d="M1305 2165 c-15 -36 -31 -67 -35 -70 -5 -3 -30 4 -56 15 -69 30 -79
17 -11 -14 32 -14 60 -26 63 -26 7 0 76 151 71 156 -2 2 -16 -25 -32 -61z"/>
<path d="M1451 2184 c0 -11 3 -14 6 -6 3 7 2 16 -1 19 -3 4 -6 -2 -5 -13z"/>
<path d="M2572 2140 c-17 -28 -79 -37 -114 -17 -15 9 -28 14 -28 12 0 -10 56
-55 68 -55 23 0 71 30 83 51 14 27 7 34 -9 9z"/>
<path d="M1725 2140 c3 -5 17 -10 30 -10 13 0 27 5 30 10 4 6 -8 10 -30 10
-22 0 -34 -4 -30 -10z"/>
<path d="M1394 2042 c10 -12 42 -28 71 -37 65 -18 65 -18 65 0 0 8 -3 14 -7
13 -15 -4 -88 14 -118 29 l-30 16 19 -21z"/>
<path d="M2318 2042 c-32 -9 -58 -21 -58 -28 0 -8 20 -6 68 8 114 35 105 52
-10 20z"/>
<path d="M2103 1993 c-13 -2 -23 -9 -23 -15 0 -6 10 -8 23 -4 12 3 30 6 40 6
9 0 17 5 17 10 0 10 -16 11 -57 3z"/>
<path d="M1710 1970 c0 -6 28 -10 65 -10 37 0 65 4 65 10 0 6 -28 10 -65 10
-37 0 -65 -4 -65 -10z"/>
<path d="M1770 1890 c-24 -9 -46 -22 -48 -29 -4 -12 73 14 92 30 19 17 0 16
-44 -1z"/>
</g>
</svg>
